<?xml version="1.0" encoding="UTF-8" standalone="no"?>
<!-- Created with Inkscape (http://www.inkscape.org/) -->

<svg
   xmlns:dc="http://purl.org/dc/elements/1.1/"
   xmlns:cc="http://creativecommons.org/ns#"
   xmlns:rdf="http://www.w3.org/1999/02/22-rdf-syntax-ns#"
   xmlns:svg="http://www.w3.org/2000/svg"
   xmlns="http://www.w3.org/2000/svg"
   xmlns:sodipodi="http://sodipodi.sourceforge.net/DTD/sodipodi-0.dtd"
   xmlns:inkscape="http://www.inkscape.org/namespaces/inkscape"
   width="53.498749mm"
   height="43.576874mm"
   viewBox="0 0 53.498749 43.576869"
   version="1.1"
   id="svg8"
   inkscape:version="0.92.3 (2405546, 2018-03-11)"
   sodipodi:docname="as asdf.svg">
  <defs
     id="defs2" />
  <sodipodi:namedview
     id="base"
     pagecolor="#ffffff"
     bordercolor="#666666"
     borderopacity="1.0"
     inkscape:pageopacity="0.0"
     inkscape:pageshadow="2"
     inkscape:zoom="0.49497475"
     inkscape:cx="526.8617"
     inkscape:cy="94.254282"
     inkscape:document-units="mm"
     inkscape:current-layer="layer1"
     showgrid="false"
     inkscape:window-width="1920"
     inkscape:window-height="1018"
     inkscape:window-x="-9"
     inkscape:window-y="-9"
     inkscape:window-maximized="1"
     inkscape:snap-global="false" />
  <metadata
     id="metadata5">
    <rdf:RDF>
      <cc:Work
         rdf:about="">
        <dc:format>image/svg+xml</dc:format>
        <dc:type
           rdf:resource="http://purl.org/dc/dcmitype/StillImage" />
        <dc:title></dc:title>
      </cc:Work>
    </rdf:RDF>
  </metadata>
  <g
     inkscape:label="Layer 1"
     inkscape:groupmode="layer"
     id="layer1"
     transform="translate(445.16342,84.559419)">
    <g
       id="g2461"
       transform="matrix(0.26458333,0,0,0.26458333,-456.77863,-90.300877)">
      <g
         id="g2429">
	<polygon
   id="polygon2423"
   points="43.9,185.2 43.9,132.3 58.8,132.3 94.7,170.2 95,170.2 95,132.3 107.9,132.3 107.9,185.2 92.8,185.2 56.9,147.4 56.7,147.4 56.7,185.2 "
   class="st0"
   style="fill:#256ab4" />

	<polygon
   id="polygon2425"
   points="130.4,142.5 130.4,153.3 161.3,153.3 161.3,163.4 130.4,163.4 130.4,175.1 176.9,175.1 176.9,185.2 117.5,185.2 117.5,132.3 174.9,132.3 174.9,142.5 "
   class="st0"
   style="fill:#256ab4" />

	<path
   id="path2427"
   d="m 236.8,147.2 c -3.7,-2 -7.5,-3.5 -11.3,-4.5 -3.8,-0.9 -7.8,-1.4 -11.9,-1.4 -5.6,0 -9.7,0.5 -12.5,1.5 -2.8,1 -4.2,2.4 -4.2,4.1 0,1.8 1.5,3.1 4.6,3.8 1.3,0.3 2.6,0.5 4.1,0.7 1.5,0.1 3,0.3 4.7,0.3 1.7,0.1 3.5,0.1 5.3,0.2 1.9,0.1 3.8,0.2 5.9,0.4 4.1,0.4 7.7,1 10.8,1.7 3.1,0.7 5.6,1.7 7.7,3 2,1.2 3.6,2.8 4.6,4.6 1,1.9 1.5,4.1 1.5,6.6 0,5.7 -2.6,10.2 -7.9,13.4 -5.2,3.2 -12.9,4.8 -23.1,4.8 -6.6,0 -12.7,-0.8 -18.3,-2.3 -5.6,-1.6 -10.9,-4.1 -16,-7.6 l 7,-8.6 c 4.6,2.8 9.1,4.8 13.7,6.2 4.5,1.3 9.3,2 14.2,2 5.4,0 9.5,-0.7 12.3,-2 2.9,-1.4 4.3,-3.1 4.3,-5.3 0,-1.2 -0.4,-2.1 -1.2,-2.7 -0.8,-0.6 -2,-1.1 -3.6,-1.5 -1.6,-0.3 -3.5,-0.6 -5.7,-0.7 -2.2,-0.1 -4.8,-0.2 -7.6,-0.4 -5.2,-0.2 -9.7,-0.6 -13.5,-1.3 -3.8,-0.7 -7,-1.6 -9.6,-2.9 -2.6,-1.2 -4.5,-2.8 -5.7,-4.7 -1.3,-1.9 -1.9,-4.1 -1.9,-6.8 0,-5.2 2.5,-9.3 7.5,-12.4 5,-3 12.3,-4.6 22,-4.6 12.9,0 23.3,2.6 31.1,7.7 z"
   class="st0"
   inkscape:connector-curvature="0"
   style="fill:#256ab4" />

</g>
      <g
         id="g2441">
	<polygon
   id="polygon2431"
   points="111.4,93 84.8,97 84.8,99.8 111.2,96 177.3,96 203.8,99.9 203.8,97.6 177.1,93 "
   class="st1"
   style="fill:#afa068" />

	<path
   id="path2433"
   d="m 81.5,117.5 h 125.8 v -8.1 h -3.5 v -7.1 l -26.5,-3.8 h -65.9 l -26.6,3.6 v 7.3 h -3.4 v 8.1 z m 90.4,-7.7 h 24.6 v 4.8 H 92 v -4.8 h 24.4 4.8 46 z"
   class="st1"
   inkscape:connector-curvature="0"
   style="fill:#afa068" />

	<rect
   id="rect2435"
   height="4.9000001"
   width="3"
   class="st1"
   y="46.5"
   x="146"
   style="fill:#afa068" />

	<rect
   id="rect2437"
   height="4.6999998"
   width="3"
   class="st1"
   y="53.799999"
   x="146"
   style="fill:#afa068" />

	<path
   id="path2439"
   d="M 193.2,88.6 C 184,82.4 178,71.6 168,67 c -1.3,-0.5 -2.6,-1.1 -3.8,-1.5 -1.2,-0.4 -3.4,-1.1 -5.1,-1.5 -2.1,-0.6 -5.2,-1 -6.3,-2.2 -0.5,-0.6 -0.4,-1.4 -1.5,-1.7 v -14.9 0 h 3.1 V 42 h -2.2 c -1.9,0 -2.1,-0.3 -2.5,-0.5 -0.7,-0.3 -1.9,-1.2 -2.6,-2.7 -0.7,-1.5 -1.4,-5.7 -1.6,-8.8 -0.2,-2.8 -0.4,-8.3 -0.4,-8.3 h -0.9 c 0,0 -0.1,2 -0.1,4.2 -0.1,2.2 0.6,13.5 -5.7,15.9 -0.2,0.1 -0.4,0.1 -0.7,0.2 H 135 v 3.2 h 2.8 v 14.9 c -1.1,0.3 -1.2,2.4 -3.3,3 -4.6,0.6 -9.1,2.1 -12.9,3.7 -14.2,5.5 -21.1,20.4 -32.2,25.1 0,0 -1.5,0.7 -4.7,1.8 v 1.1 c 0,0 19.6,-2.8 26.3,-3.7 l 66.1,-0.1 26.6,4.8 0.1,-1.6 c -6.3,-2 -6.2,-2.6 -10.6,-5.6 z M 144,40.1 c 0.3,-3.8 0.9,-10.8 0.9,-10.8 0,0 0.5,8.7 1.9,10.7 0.5,0.7 0.7,1.2 2,1.7 l -4.9,-0.1 z m -0.2,2.9 h 9.4 v 1.1 h -9.4 z m 7.4,18.4 v 1.1 h -7.4 V 61.4 Z M 144.8,60 V 58.9 58.8 55.6 53.7 51 49.1 45.5 h 5.4 v 3.6 1.9 2.7 1.9 3.2 0.1 1.1 z M 177,88.3 h -64.4 l 8.6,-8.9 c 8.4,-11.2 20.4,-15.5 20.4,-15.5 0,0 8,-0.6 11.3,0.1 0,0 12.2,2.2 16.7,5.7 0,0 4.3,2 16.7,15.3 0,0 6.2,6 11.3,8.1 z"
   class="st1"
   inkscape:connector-curvature="0"
   style="fill:#afa068" />

</g>
    </g>
  </g>
  <style
     id="style1832"
     type="text/css">
	.st0{fill:none;}
	.st1{fill:#F7BC60;}
	.st2{fill:#FFFFFF;}
	.st3{fill:#004282;}
	.st4{fill:#F99D1C;}
	.st5{fill:url(#SVGID_1_);}
</style>
  <style
     id="style2421"
     type="text/css">
	.st0{fill:#256AB4;}
	.st1{fill:#AFA068;}
</style>
</svg>
