<svg version="1.1" id="Layer_1" xmlns="http://www.w3.org/2000/svg" xmlns:xlink="http://www.w3.org/1999/xlink" x="0px" y="0px"
	 width="100%" viewBox="0 0 500 500" enable-background="new 0 0 500 500" xml:space="preserve">
<path fill="#FEFFFF" opacity="1.000000" stroke="none" 
	d="
M290.000000,501.000000 
	C193.333359,501.000000 97.166710,501.000000 1.000051,501.000000 
	C1.000034,334.333405 1.000034,167.666794 1.000017,1.000141 
	C167.666565,1.000094 334.333130,1.000094 500.999756,1.000047 
	C500.999847,167.666519 500.999847,334.333038 500.999939,500.999786 
	C430.833344,501.000000 360.666656,501.000000 290.000000,501.000000 
M135.898148,353.991333 
	C136.736832,354.482544 137.575516,354.973785 138.440781,355.561951 
	C138.440781,355.561951 138.538101,355.587158 138.287460,356.329010 
	C140.788345,357.836792 143.207214,360.452240 145.805527,360.644684 
	C153.595276,361.221619 161.464157,361.074829 169.283859,360.758423 
	C173.241745,360.598267 175.969437,358.657501 175.955124,353.857513 
	C175.853256,319.694702 175.844055,285.531281 175.962692,251.368576 
	C175.979523,246.525864 174.010132,244.842239 169.373383,244.990601 
	C162.880829,245.198334 156.363968,245.282364 149.881302,244.952148 
	C145.158478,244.711578 143.909851,246.556961 143.950485,251.063980 
	C144.141266,272.226746 144.040878,293.392151 144.021271,314.556610 
	C144.019669,316.269623 143.843094,317.982483 143.747833,319.695435 
	C142.988602,320.208160 142.229355,320.720917 141.470108,321.233643 
	C140.128510,319.138855 139.075211,316.768677 137.388870,315.003174 
	C133.094421,310.507111 128.517105,306.281219 123.929825,301.278198 
	C120.517174,298.299683 117.104515,295.321136 113.826675,292.194183 
	C113.826675,292.194183 113.651527,292.291809 113.865578,291.547821 
	C113.818916,291.053833 113.966270,290.377136 113.697777,290.092102 
	C100.185890,275.745972 86.691757,261.381897 73.007286,247.201584 
	C71.727722,245.875671 69.236481,245.193497 67.281227,245.137238 
	C59.293655,244.907486 51.287643,245.252380 43.304718,244.952225 
	C38.619465,244.776062 36.885860,246.196335 36.911682,251.126602 
	C37.090473,285.267181 37.000343,319.409088 37.013229,353.550598 
	C37.015499,359.562531 38.093830,360.686615 44.332626,360.830658 
	C49.659206,360.953613 54.990940,360.877502 60.320225,360.852905 
	C66.116653,360.826141 66.977837,360.013031 66.986420,354.179291 
	C67.018280,332.528656 67.002388,310.877930 67.004387,289.227234 
	C67.004547,287.481873 67.004417,285.736511 67.004417,282.777710 
	C69.631607,285.540100 71.331337,287.511017 73.225197,289.273285 
	C75.732254,291.606110 78.391182,293.775757 81.106598,296.698639 
	C82.850227,297.995178 84.593857,299.291687 86.340233,300.663208 
	C86.340233,300.663208 86.414619,300.673065 86.200554,301.402313 
	C87.225319,302.164032 88.250084,302.925781 89.121918,303.899811 
	C89.121918,303.899811 89.311859,303.719849 89.152290,304.445038 
	C95.240738,311.156189 101.307037,317.887848 107.462662,324.536804 
	C107.919945,325.030701 109.018646,324.930786 110.265060,325.494843 
	C110.814354,326.062408 111.363647,326.629944 111.886719,327.927399 
	C112.459427,329.260834 112.726585,330.876709 113.655075,331.881317 
	C119.171432,337.849976 124.804558,343.712952 130.510269,349.501221 
	C131.138992,350.139038 132.477921,350.076721 133.544861,350.460358 
	C133.544861,350.460358 133.663330,350.523132 133.347015,351.193787 
	C134.143845,351.894806 134.940674,352.595795 135.898148,353.991333 
M337.933563,141.061279 
	C337.933563,141.061279 337.862030,141.098602 337.872009,140.399078 
	C336.877777,139.653915 335.883514,138.908752 334.893829,138.105820 
	C334.893829,138.105820 334.836090,138.110733 334.866333,137.406006 
	C333.218567,135.968964 331.570801,134.531921 329.407410,132.753510 
	C328.084534,131.793350 326.761658,130.833176 325.170807,129.232315 
	C324.130707,128.144043 323.090607,127.055771 321.949005,125.288513 
	C309.925079,111.220474 294.774414,103.260788 275.974091,101.301094 
	C274.632538,100.973190 273.290985,100.645287 271.346863,100.131317 
	C270.934082,100.052010 270.521332,99.972702 269.955933,99.216805 
	C265.896332,94.811775 264.380066,89.665802 264.923370,83.688072 
	C265.267792,79.898697 265.129181,76.045578 264.944214,72.233810 
	C264.777863,68.806641 265.203735,66.392487 269.135620,64.950356 
	C270.729156,64.365875 271.878082,60.913502 272.098541,58.655724 
	C272.380829,55.764942 270.023895,55.113369 267.329895,55.074421 
	C260.828094,54.980423 256.615692,51.349579 255.994034,45.152653 
	C255.121033,36.450428 254.722824,27.697786 253.714096,19.014032 
	C253.479904,16.998081 251.600586,15.173235 250.478226,13.260464 
	C249.671616,15.161435 248.273758,17.026262 248.154968,18.969282 
	C247.421204,30.972233 247.842773,43.171200 240.995300,53.978649 
	C240.995300,53.978649 240.865173,53.881428 240.084015,54.045525 
	C238.322708,54.404423 236.471970,54.535149 234.823318,55.181423 
	C232.872604,55.946106 229.641861,57.048748 229.557556,58.195396 
	C229.398911,60.353710 231.027145,62.681973 232.047501,64.876823 
	C232.951477,66.821312 234.791061,68.636124 234.906372,70.585732 
	C235.277817,76.865997 235.068726,83.182213 235.035217,89.484314 
	C235.005569,95.058228 232.444534,98.124290 227.049744,99.668427 
	C225.281097,100.174667 223.703064,101.346947 221.326172,102.195984 
	C220.624222,102.297356 219.922272,102.398727 218.443527,102.201866 
	C216.569199,103.071068 214.694870,103.940269 212.081177,104.904411 
	C211.099487,105.057022 210.117813,105.209641 208.786667,104.747833 
	C207.263428,105.572876 205.740189,106.397919 204.269623,107.363556 
	C204.269623,107.363556 204.245392,107.511726 203.580856,107.209930 
	C203.097870,107.213608 202.614868,107.217278 201.400238,107.095169 
	C200.224609,108.015022 199.048996,108.934868 197.184204,109.927620 
	C196.496933,110.016113 195.809662,110.104599 194.461334,110.135803 
	C193.968536,110.751907 193.475739,111.368011 192.371796,112.059738 
	C191.967163,112.128845 191.562515,112.197960 190.467957,112.162209 
	C189.620590,113.081963 188.773224,114.001717 187.336807,115.212799 
	C185.579056,116.510323 183.821304,117.807846 181.416031,119.142616 
	C180.948380,119.764816 180.480743,120.387016 179.682159,121.538399 
	C178.819153,122.074890 177.956146,122.611382 176.401382,123.158966 
	C176.075058,123.871521 175.748718,124.584076 175.343430,125.349152 
	C175.343430,125.349152 175.283951,125.423019 174.553772,125.220970 
	C173.803864,126.257393 173.053940,127.293808 172.020218,128.912231 
	C170.457825,130.378677 168.895432,131.845108 166.588516,133.180344 
	C165.854095,134.211365 165.119675,135.242386 164.314529,136.315292 
	C164.314529,136.315292 164.268967,136.383698 163.563492,136.210297 
	C163.170563,136.897247 162.777618,137.584198 162.316330,138.317749 
	C162.316330,138.317749 162.274857,138.389343 161.606674,138.191254 
	C161.088577,139.130630 160.570465,140.069992 159.929596,141.400558 
	C159.929596,141.400558 159.787231,141.785034 159.120300,141.885971 
	C155.750458,144.929321 152.380615,147.972672 148.278183,151.025909 
	C141.035583,154.856934 133.696915,158.524841 126.644363,162.678543 
	C125.460381,163.375854 125.514854,166.175934 124.995384,168.759949 
	C125.004433,169.515549 125.013481,170.271133 124.796982,171.530869 
	C124.513916,172.004593 124.230850,172.478317 123.214027,173.114883 
	C123.084839,174.700546 122.806091,176.292740 122.874847,177.869781 
	C122.927704,179.082077 123.771385,180.312958 123.648087,181.470001 
	C123.267395,185.042267 122.803680,188.635895 121.936981,192.112732 
	C121.536255,193.720276 120.451759,195.594482 119.106636,196.440186 
	C116.134964,198.308533 114.442894,200.430984 114.975708,204.106979 
	C115.235695,205.900681 115.019852,207.763214 115.020851,209.594589 
	C115.025314,217.748383 115.272423,217.997543 123.465050,217.997620 
	C207.541992,217.998489 291.618927,217.998260 375.695862,217.997452 
	C377.027740,217.997437 378.606079,218.441132 379.638031,217.881805 
	C381.539307,216.851242 384.372589,215.404846 384.595978,213.818817 
	C385.237488,209.264236 385.570099,204.338867 384.407013,199.991898 
	C383.802307,197.731720 379.785889,196.384369 377.851257,195.009033 
	C376.894531,189.167694 375.990906,183.650772 375.140198,177.652008 
	C375.140198,177.652008 375.129242,177.170319 375.237762,176.549149 
	C375.270660,176.341568 375.303589,176.133972 375.778015,175.457291 
	C375.218292,171.623703 372.927216,171.555969 369.409668,172.846573 
	C369.001434,172.795074 368.593201,172.743576 368.305298,171.977478 
	C369.809448,171.640244 371.367340,171.449631 372.802399,170.923843 
	C374.190643,170.415207 376.564117,169.528900 376.544647,168.865967 
	C376.500458,167.358063 375.608124,165.084351 374.423981,164.560471 
	C371.720612,163.364426 368.635071,163.032150 365.319061,162.215973 
	C365.319061,162.215973 364.928070,162.094345 364.928101,161.365936 
	C362.566132,159.984619 360.204193,158.603302 357.416840,157.112839 
	C357.416840,157.112839 356.989990,157.009491 356.921448,156.310806 
	C354.617493,154.869339 352.313538,153.427887 349.412170,151.672775 
	C347.222076,149.821365 345.031982,147.969971 342.839691,145.451141 
	C342.190674,145.014603 341.541687,144.578064 340.481140,143.868149 
	C340.223053,143.655396 340.017609,143.400253 339.874237,142.433807 
	C339.217560,142.001343 338.560883,141.568878 337.933563,141.061279 
M454.413055,266.954620 
	C460.056244,259.828247 460.059692,259.821716 451.911163,255.508453 
	C437.433411,247.844940 421.751190,244.293625 405.617432,243.750046 
	C393.744263,243.350021 381.774200,244.484024 369.908600,245.591278 
	C358.933014,246.615479 349.057098,250.897308 340.732574,258.282990 
	C331.151672,266.783325 328.291656,281.748230 334.551117,292.447357 
	C339.754639,301.341522 348.525024,306.233643 358.060089,307.893707 
	C373.394714,310.563568 389.022797,311.532684 404.516571,313.310303 
	C412.574066,314.234772 420.750061,314.749451 428.607605,316.583893 
	C434.265228,317.904663 435.682648,324.070312 431.831421,328.535400 
	C429.749969,330.948578 426.943909,333.260834 423.998047,334.317261 
	C407.760620,340.140045 391.024811,339.023071 374.812012,335.107697 
	C364.166351,332.536743 354.151428,327.204956 344.032440,322.708191 
	C341.530365,321.596283 340.259125,321.593567 338.616150,323.646515 
	C335.092224,328.049835 331.234863,332.200409 327.942108,336.763367 
	C327.246063,337.727905 327.784088,340.873138 328.769104,341.562561 
	C339.451111,349.038727 351.281830,354.280151 363.878387,357.413513 
	C380.690369,361.595459 397.901337,361.441620 415.027191,360.210449 
	C428.402405,359.248962 440.969025,355.666870 452.148071,347.489258 
	C466.012787,337.347046 468.346436,310.857605 454.076599,300.131836 
	C446.911224,294.746063 438.802948,291.794830 430.262207,290.738220 
	C414.944550,288.843231 399.502533,287.970490 384.126556,286.521240 
	C378.510651,285.991974 372.782166,285.574799 367.406403,284.046539 
	C364.797913,283.305023 361.908539,280.459686 361.020660,277.913269 
	C360.485352,276.378113 363.215454,273.226044 365.102020,271.471252 
	C366.701569,269.983429 369.108826,268.992126 371.308563,268.578552 
	C394.895294,264.144196 417.892395,265.260559 439.683838,276.467590 
	C442.729004,278.033691 445.237122,278.171265 447.527252,275.118958 
	C449.517639,272.466156 451.841309,270.063385 454.413055,266.954620 
M311.180237,245.025055 
	C273.199890,245.025925 235.219238,245.096680 197.239532,244.939957 
	C192.445190,244.920197 190.955841,246.390228 190.981598,251.219131 
	C191.162918,285.200623 191.071579,319.183533 191.083694,353.166016 
	C191.085785,359.060638 192.728012,360.861053 198.246841,360.864227 
	C236.726990,360.886414 275.207336,360.819000 313.687042,360.949432 
	C318.414459,360.965454 319.905334,358.756714 319.916016,354.621643 
	C319.927612,350.123962 319.936157,345.626251 319.927551,341.128601 
	C319.915314,334.735321 319.246613,334.066833 312.645721,334.063629 
	C287.658630,334.051483 262.671387,334.100220 237.684525,334.020630 
	C232.931061,334.005493 226.651993,335.208160 223.888824,332.722717 
	C221.492340,330.567139 223.329453,323.955627 222.836456,319.362762 
	C222.340485,314.742126 224.271317,313.834747 228.509613,313.888916 
	C245.831192,314.110504 263.159485,313.833191 280.479919,314.096008 
	C284.487030,314.156769 286.501678,312.860107 286.668518,309.098328 
	C286.889465,304.116791 286.992615,299.105865 286.700714,294.133759 
	C286.489014,290.526825 284.499359,288.903046 280.414520,288.958923 
	C262.760315,289.200562 245.100311,288.984131 227.443787,289.117004 
	C224.027313,289.142731 222.553528,288.190247 222.856094,284.614227 
	C223.107986,281.637115 223.192307,278.587799 222.840958,275.631042 
	C222.283432,270.939270 224.145462,269.786743 228.681396,269.820770 
	C255.499374,270.022095 282.320007,269.849548 309.138794,269.985443 
	C313.867920,270.009430 315.856506,267.923370 315.918945,263.529572 
	C315.987579,258.699707 316.222198,253.839890 315.755768,249.054398 
	C315.614929,247.609207 313.380066,246.368118 311.180237,245.025055 
z"/>
<path fill="#2D70B3" opacity="1.000000" stroke="none" 
	d="
M454.215363,267.252380 
	C451.841309,270.063385 449.517639,272.466156 447.527252,275.118958 
	C445.237122,278.171265 442.729004,278.033691 439.683838,276.467590 
	C417.892395,265.260559 394.895294,264.144196 371.308563,268.578552 
	C369.108826,268.992126 366.701569,269.983429 365.102020,271.471252 
	C363.215454,273.226044 360.485352,276.378113 361.020660,277.913269 
	C361.908539,280.459686 364.797913,283.305023 367.406403,284.046539 
	C372.782166,285.574799 378.510651,285.991974 384.126556,286.521240 
	C399.502533,287.970490 414.944550,288.843231 430.262207,290.738220 
	C438.802948,291.794830 446.911224,294.746063 454.076599,300.131836 
	C468.346436,310.857605 466.012787,337.347046 452.148071,347.489258 
	C440.969025,355.666870 428.402405,359.248962 415.027191,360.210449 
	C397.901337,361.441620 380.690369,361.595459 363.878387,357.413513 
	C351.281830,354.280151 339.451111,349.038727 328.769104,341.562561 
	C327.784088,340.873138 327.246063,337.727905 327.942108,336.763367 
	C331.234863,332.200409 335.092224,328.049835 338.616150,323.646515 
	C340.259125,321.593567 341.530365,321.596283 344.032440,322.708191 
	C354.151428,327.204956 364.166351,332.536743 374.812012,335.107697 
	C391.024811,339.023071 407.760620,340.140045 423.998047,334.317261 
	C426.943909,333.260834 429.749969,330.948578 431.831421,328.535400 
	C435.682648,324.070312 434.265228,317.904663 428.607605,316.583893 
	C420.750061,314.749451 412.574066,314.234772 404.516571,313.310303 
	C389.022797,311.532684 373.394714,310.563568 358.060089,307.893707 
	C348.525024,306.233643 339.754639,301.341522 334.551117,292.447357 
	C328.291656,281.748230 331.151672,266.783325 340.732574,258.282990 
	C349.057098,250.897308 358.933014,246.615479 369.908600,245.591278 
	C381.774200,244.484024 393.744263,243.350021 405.617432,243.750046 
	C421.751190,244.293625 437.433411,247.844940 451.911163,255.508453 
	C460.059692,259.821716 460.056244,259.828247 454.215363,267.252380 
M392.935181,343.007996 
	C399.192413,342.488464 405.646301,344.068329 411.756836,341.197845 
	C404.797211,340.269928 397.853363,340.236237 390.911682,340.344940 
	C390.444000,340.352264 389.993073,341.434448 389.534393,342.016754 
	C390.374176,342.346344 391.213989,342.675934 392.935181,343.007996 
M400.086487,263.004700 
	C401.210663,262.813934 402.334839,262.623138 403.459015,262.432343 
	C403.406738,262.159546 403.354492,261.886719 403.302246,261.613922 
	C396.421692,261.613922 389.541138,261.613922 382.660583,261.613922 
	C382.656982,262.077087 382.653381,262.540222 382.649811,263.003387 
	C388.161011,263.003387 393.672241,263.003387 400.086487,263.004700 
M460.424683,312.667084 
	C457.351593,318.504944 459.727356,324.425110 459.024353,330.298767 
	C459.632812,330.313416 460.241272,330.328064 460.849731,330.342743 
	C460.849731,324.680664 460.849731,319.018585 460.424683,312.667084 
z"/>
<path fill="#2269B0" opacity="1.000000" stroke="none" 
	d="
M111.912941,327.197510 
	C111.363647,326.629944 110.814354,326.062408 110.072235,325.014008 
	C109.563271,324.053528 109.247139,323.573883 108.952301,322.722656 
	C105.230637,318.339691 101.487679,314.328339 97.764374,310.268219 
	C97.784019,310.219452 97.686790,310.259521 97.744934,309.896759 
	C96.869179,309.022400 95.935280,308.510834 94.782196,307.893311 
	C94.289993,307.591125 94.098694,307.334015 93.994156,306.647705 
	C92.985954,305.528992 91.972733,304.778625 90.686211,303.956848 
	C90.045898,303.830231 89.678879,303.775024 89.311859,303.719849 
	C89.311859,303.719849 89.121918,303.899811 89.163979,303.477051 
	C88.275566,302.260559 87.345093,301.466797 86.414619,300.673065 
	C86.414619,300.673065 86.340233,300.663208 86.314751,300.328186 
	C85.873322,299.306702 85.457382,298.620239 85.028259,297.574249 
	C83.288429,295.511292 81.561775,293.807892 79.731369,291.964508 
	C79.627609,291.824524 79.545830,291.485779 79.652336,291.117920 
	C79.082901,290.278992 78.406960,289.807922 77.724136,289.306335 
	C77.717255,289.275848 77.655190,289.268127 77.736343,288.903015 
	C76.793312,287.795532 75.769119,287.053192 74.768311,286.267700 
	C74.791695,286.224609 74.695694,286.244720 74.754486,285.878540 
	C74.081589,285.107758 73.349892,284.703217 72.427177,284.185486 
	C71.998955,283.881653 71.827774,283.643494 71.781067,282.992249 
	C71.144814,282.184296 70.450119,281.741974 69.778046,281.249359 
	C69.800667,281.199036 69.699974,281.244171 69.757584,280.885864 
	C69.708069,280.219940 69.642715,279.669220 69.487335,279.642487 
	C68.015915,279.389679 65.835381,278.539551 65.196709,279.185028 
	C64.004639,280.389709 63.132771,282.474884 63.122326,284.199677 
	C62.990368,306.001617 62.906700,327.806030 63.142742,349.606201 
	C63.191452,354.104950 61.841400,355.449493 57.490829,355.122040 
	C52.691154,354.760834 47.843933,355.031342 43.009705,354.555359 
	C42.997570,319.062225 42.993156,284.040344 43.457916,249.003601 
	C52.744087,248.891220 61.561092,248.793716 70.644012,248.791245 
	C71.401947,249.435272 71.893967,249.984268 72.319763,250.913483 
	C72.989914,251.737244 73.726273,252.180786 74.715012,252.748505 
	C75.409859,253.455429 75.852341,254.038208 76.229492,255.000946 
	C77.236977,256.157837 78.309792,256.934753 79.629463,257.840515 
	C80.364960,258.509247 80.853615,259.049133 81.279259,259.952515 
	C81.878365,260.802307 82.540489,261.288574 83.136986,261.876892 
	C83.071358,261.978882 83.229301,261.794678 83.189850,262.157349 
	C84.168137,263.270020 85.185867,264.020020 86.129395,264.856110 
	C86.055199,264.942230 86.230782,264.797791 86.188370,265.154541 
	C87.437775,266.669891 88.729599,267.828522 90.308899,269.136292 
	C91.842987,270.720734 93.089600,272.156067 94.253052,273.962646 
	C95.860512,275.793945 97.551125,277.253967 99.200417,278.766296 
	C99.159096,278.818573 99.283539,278.770813 99.217575,279.127930 
	C102.139229,282.298492 105.126862,285.111969 108.391724,288.096619 
	C110.329811,289.609131 111.990669,290.950470 113.651520,292.291809 
	C113.651527,292.291809 113.826675,292.194183 113.744095,292.551910 
	C113.736473,293.282440 113.811424,293.655273 113.667496,294.213684 
	C114.043221,294.842529 114.637817,295.285706 115.172943,295.798920 
	C115.113472,295.868927 115.269798,295.772430 115.211548,296.132751 
	C116.824051,297.938660 118.494812,299.384308 120.083755,300.914612 
	C120.001930,300.999298 120.170029,300.834106 120.140564,301.191895 
	C121.431458,302.684875 122.751816,303.820099 124.353676,305.107300 
	C125.883774,306.691132 127.132370,308.123016 128.297180,309.924164 
	C128.903259,310.733948 129.593155,311.174408 130.301758,311.649597 
	C130.320480,311.684296 130.391525,311.718628 130.301483,312.082520 
	C131.231613,313.179474 132.251801,313.912506 133.277832,314.677856 
	C133.283661,314.710175 133.344162,314.735687 133.277054,315.096344 
	C134.142410,315.969879 135.074875,316.482727 136.108398,317.139709 
	C136.209473,317.283783 136.300156,317.623901 136.233322,317.986694 
	C136.841995,318.832245 137.517502,319.314972 138.104675,319.891541 
	C138.016327,319.985352 138.207321,319.812286 138.161880,320.173462 
	C140.696320,322.618164 143.276184,324.701721 145.856049,326.785278 
	C146.855820,323.839142 148.273575,320.957642 148.741821,317.929321 
	C149.244553,314.678131 148.854980,311.288971 148.854965,307.960022 
	C148.854935,288.396393 148.854965,268.832733 148.854965,249.264618 
	C156.187805,249.264618 163.274368,249.264618 170.045807,249.264618 
	C170.045807,254.516937 170.045776,259.460602 170.045807,264.404266 
	C170.045959,292.533905 169.910767,320.664825 170.170883,348.792053 
	C170.217789,353.863861 168.936127,355.359497 163.822800,355.179565 
	C155.918304,354.901428 147.981659,355.537384 139.804413,355.740784 
	C139.212814,355.659637 138.875458,355.623383 138.538101,355.587158 
	C138.538101,355.587158 138.440781,355.561951 138.436127,355.256470 
	C138.358231,354.612976 138.284988,354.274994 138.402893,353.742493 
	C137.434311,352.571625 136.274582,351.595215 134.870819,350.596619 
	C134.310486,350.465668 133.989334,350.448578 133.663330,350.523132 
	C133.663330,350.523132 133.544861,350.460358 133.537354,350.159363 
	C133.451782,349.540070 133.405685,349.217163 133.549896,348.673828 
	C133.101013,347.993896 132.493790,347.529816 131.787323,346.926270 
	C131.688110,346.786804 131.602859,346.455292 131.691025,346.086853 
	C131.099335,345.256012 130.419464,344.793671 129.730499,344.301666 
	C129.721390,344.272003 129.659958,344.263245 129.732086,343.898499 
	C128.789520,342.785309 127.774826,342.036865 126.791122,341.236084 
	C126.822121,341.183746 126.710846,341.233002 126.775742,340.874451 
	C125.874771,339.687164 124.908920,338.858429 123.752861,337.827301 
	C122.992226,337.154999 122.421791,336.685089 121.871979,335.847961 
	C120.860374,334.700073 119.828156,333.919403 118.562195,332.952576 
	C117.514450,331.899719 116.700447,331.033051 115.902206,329.809784 
	C114.898331,328.666962 113.878685,327.880707 112.616814,327.067871 
	C112.374588,327.041290 111.912941,327.197510 111.912941,327.197510 
z"/>
<path fill="#ABA16E" opacity="1.000000" stroke="none" 
	d="
M159.787231,141.785034 
	C159.787231,141.785034 159.929596,141.400558 160.290787,141.122345 
	C161.192932,140.025879 161.733902,139.207611 162.274872,138.389343 
	C162.274857,138.389343 162.316330,138.317749 162.635071,138.239929 
	C163.392212,137.569321 163.830597,136.976517 164.268982,136.383698 
	C164.268967,136.383698 164.314529,136.315292 164.658020,136.239899 
	C165.778671,135.213531 166.555847,134.262527 167.333008,133.311523 
	C168.895432,131.845108 170.457825,130.378677 172.474640,128.549866 
	C173.714020,127.266014 174.498993,126.344513 175.283951,125.423019 
	C175.283951,125.423019 175.343430,125.349152 175.651764,125.283463 
	C176.403961,124.891769 176.847824,124.565758 177.648178,124.200119 
	C179.368027,123.138794 180.731415,122.117081 182.439026,121.034531 
	C189.182785,117.456879 195.613403,113.994392 201.949356,110.366562 
	C202.936081,109.801590 203.490875,108.482239 204.245392,107.511726 
	C204.245392,107.511726 204.269623,107.363556 204.586044,107.321579 
	C205.597900,107.255547 206.293320,107.231499 207.186554,107.395157 
	C207.956985,107.085968 208.529633,106.589081 209.146255,105.911362 
	C209.190231,105.730530 209.136124,105.362267 209.136124,105.362259 
	C210.117813,105.209641 211.099487,105.057022 212.838074,104.940781 
	C215.470093,104.151466 217.345215,103.325783 219.220322,102.500107 
	C219.922272,102.398727 220.624222,102.297356 221.962738,102.440140 
	C228.454498,103.744736 232.411636,100.715714 235.681625,96.449356 
	C239.858200,91.000183 237.704071,84.617836 237.817627,78.675346 
	C237.946381,71.936546 240.518600,64.152245 231.925858,60.376923 
	C235.266586,57.949486 238.065872,55.915459 240.865173,53.881428 
	C240.865173,53.881428 240.995300,53.978649 241.299118,53.934456 
	C243.514587,52.078407 245.426224,50.266556 247.567337,48.237209 
	C248.079697,52.469749 248.874344,56.355141 248.958008,60.255787 
	C249.163620,69.842133 248.930496,79.437813 249.130219,89.024399 
	C249.180283,91.427292 250.198227,93.810013 250.873962,96.630302 
	C250.449203,96.942894 249.337540,97.760986 248.151154,98.634087 
	C250.947723,100.804955 261.247620,101.927971 263.361389,100.309364 
	C263.900635,99.896461 263.918671,98.802948 264.480957,98.018066 
	C265.196991,98.007576 265.608246,98.001160 266.196228,98.292358 
	C267.618195,99.024452 268.863373,99.458923 270.108551,99.893402 
	C270.521332,99.972702 270.934082,100.052010 271.609436,100.379944 
	C271.872009,100.628563 271.870422,100.952057 271.514496,101.165939 
	C268.709625,101.588531 266.263672,101.923721 263.811157,101.981926 
	C256.832764,102.147522 249.292587,100.559174 243.008743,102.699921 
	C234.571304,105.574341 226.408463,110.424057 219.397018,116.016991 
	C210.764359,122.903160 203.344864,131.336304 195.596481,139.291183 
	C192.746521,142.217117 190.453629,145.685654 187.581192,148.986420 
	C182.512527,153.048538 182.512527,153.048538 186.024277,155.462387 
	C186.022568,156.509125 186.029648,157.206970 185.647339,157.943268 
	C183.781372,158.556458 182.304810,159.131210 180.453796,159.695450 
	C177.787231,159.563400 175.495102,159.441849 172.746536,159.221527 
	C166.529648,160.149734 160.769196,161.176743 154.626923,162.191193 
	C153.228409,162.219070 152.211731,162.259506 150.766357,162.203827 
	C147.505417,162.987427 144.673187,163.867111 141.409119,164.803345 
	C138.642639,164.959106 136.307968,165.058334 133.959213,164.765350 
	C133.860153,163.857529 133.775177,163.341934 133.728790,162.791718 
	C133.767395,162.757111 133.862839,162.716553 134.184174,162.767395 
	C135.036316,162.257416 135.567123,161.696609 136.331024,160.881058 
	C140.744354,157.793518 144.924561,154.960693 149.457581,152.096130 
	C153.136002,148.637924 156.461609,145.211472 159.787231,141.785034 
z"/>
<path fill="#EBE9DE" opacity="1.000000" stroke="none" 
	d="
M375.087311,178.133850 
	C375.990906,183.650772 376.894531,189.167694 377.851257,195.009033 
	C379.785889,196.384369 383.802307,197.731720 384.407013,199.991898 
	C385.570099,204.338867 385.237488,209.264236 384.595978,213.818817 
	C384.372589,215.404846 381.539307,216.851242 379.638031,217.881805 
	C378.606079,218.441132 377.027740,217.997437 375.695862,217.997452 
	C291.618927,217.998260 207.541992,217.998489 123.465050,217.997620 
	C115.272423,217.997543 115.025314,217.748383 115.020851,209.594589 
	C115.019852,207.763214 115.235695,205.900681 114.975708,204.106979 
	C114.442894,200.430984 116.134964,198.308533 119.106636,196.440186 
	C120.451759,195.594482 121.536255,193.720276 121.936981,192.112732 
	C122.803680,188.635895 123.267395,185.042267 123.648087,181.470001 
	C123.771385,180.312958 122.927704,179.082077 122.874847,177.869781 
	C122.806091,176.292740 123.084839,174.700546 123.694855,173.259476 
	C124.440491,173.600342 124.705299,173.796616 124.983894,174.408234 
	C126.076660,175.887283 127.031532,177.646790 128.261108,177.866119 
	C130.635040,178.289536 133.164047,177.843628 136.002151,177.829895 
	C137.263733,177.337646 138.151932,176.773605 139.447937,176.127548 
	C143.757263,175.927383 147.658783,175.809235 151.941498,175.758911 
	C153.902481,175.023590 155.482300,174.220428 157.476196,173.320938 
	C159.593597,173.150055 161.296921,173.075516 163.151794,173.229584 
	C163.878265,173.268967 164.453186,173.079727 165.426636,172.865158 
	C167.416931,172.804184 169.008728,172.768539 170.978668,172.809479 
	C172.247818,172.305359 173.138840,171.724670 174.487610,171.072739 
	C189.528503,170.700729 204.110809,170.199463 218.694901,170.140091 
	C250.962448,170.008789 283.230896,170.091171 315.498962,170.119034 
	C317.645874,170.120895 319.792511,170.397018 322.078430,170.844147 
	C324.602356,171.681061 326.987152,172.219406 329.809418,172.752228 
	C333.811340,172.973633 337.375763,173.200577 341.049377,173.726913 
	C343.103973,174.356842 345.049408,174.687363 347.417847,175.012970 
	C351.876312,175.434433 355.911682,175.860809 360.030029,176.598541 
	C360.857056,177.201080 361.601166,177.492294 362.783783,177.779572 
	C366.804504,177.844223 370.386749,177.912811 374.248932,178.016663 
	C374.715027,178.079239 374.901184,178.106552 375.087311,178.133850 
M190.506531,175.863068 
	C179.447388,176.914932 168.363693,177.762497 157.337387,179.087570 
	C149.457626,180.034500 141.691742,181.950836 133.807831,182.835770 
	C125.097191,183.813492 125.063751,183.515945 125.031120,192.279205 
	C125.029259,192.779114 124.998497,193.281204 125.033432,193.778595 
	C125.247383,196.823959 124.576393,198.912445 120.840240,199.147522 
	C119.835136,199.210754 118.486633,201.108765 118.130623,202.395508 
	C117.659325,204.098999 118.004486,206.029587 118.006195,207.862564 
	C118.012947,215.085907 118.014023,215.092026 125.069893,215.092163 
	C207.556183,215.093628 290.042450,215.093033 372.528748,215.093246 
	C382.719299,215.093277 381.897308,216.068039 381.967926,205.689880 
	C381.992706,202.052017 382.433258,198.449982 376.969849,198.610657 
	C376.334686,198.629333 375.250336,196.750946 375.062286,195.636017 
	C374.733917,193.688995 374.951111,191.651566 374.920624,189.652328 
	C374.866425,186.098679 373.762146,183.911621 369.556366,183.502472 
	C362.153259,182.782257 354.824951,181.324387 347.446167,180.315613 
	C336.134033,178.769119 324.820068,176.211258 313.481598,176.066605 
	C272.828308,175.547943 232.164352,175.862961 190.506531,175.863068 
z"/>
<path fill="#BED0E5" opacity="1.000000" stroke="none" 
	d="
M311.642303,245.029297 
	C313.380066,246.368118 315.614929,247.609207 315.755768,249.054398 
	C316.222198,253.839890 315.987579,258.699707 315.918945,263.529572 
	C315.856506,267.923370 313.867920,270.009430 309.138794,269.985443 
	C282.320007,269.849548 255.499374,270.022095 228.681396,269.820770 
	C224.145462,269.786743 222.283432,270.939270 222.840958,275.631042 
	C223.192307,278.587799 223.107986,281.637115 222.856094,284.614227 
	C222.553528,288.190247 224.027313,289.142731 227.443787,289.117004 
	C245.100311,288.984131 262.760315,289.200562 280.414520,288.958923 
	C284.499359,288.903046 286.489014,290.526825 286.700714,294.133759 
	C286.992615,299.105865 286.889465,304.116791 286.668518,309.098328 
	C286.501678,312.860107 284.487030,314.156769 280.479919,314.096008 
	C263.159485,313.833191 245.831192,314.110504 228.509613,313.888916 
	C224.271317,313.834747 222.340485,314.742126 222.836456,319.362762 
	C223.329453,323.955627 221.492340,330.567139 223.888824,332.722717 
	C226.651993,335.208160 232.931061,334.005493 237.684525,334.020630 
	C262.671387,334.100220 287.658630,334.051483 312.645721,334.063629 
	C319.246613,334.066833 319.915314,334.735321 319.927551,341.128601 
	C319.936157,345.626251 319.927612,350.123962 319.916016,354.621643 
	C319.905334,358.756714 318.414459,360.965454 313.687042,360.949432 
	C275.207336,360.819000 236.726990,360.886414 198.246841,360.864227 
	C192.728012,360.861053 191.085785,359.060638 191.083694,353.166016 
	C191.071579,319.183533 191.162918,285.200623 190.981598,251.219131 
	C190.955841,246.390228 192.445190,244.920197 197.239532,244.939957 
	C235.219238,245.096680 273.199890,245.025925 311.642303,245.029297 
M283.552032,291.499176 
	C281.921356,291.340271 280.290955,291.046509 278.659973,291.043243 
	C261.185699,291.008423 243.710724,290.939056 226.237411,291.071869 
	C221.587448,291.107178 219.455887,289.554230 219.944031,284.642761 
	C220.287994,281.182098 220.243515,277.639496 219.943756,274.170532 
	C219.655182,270.830902 220.736557,268.408691 224.314026,266.564880 
	C252.200043,266.553497 280.086426,266.468964 307.971649,266.611969 
	C312.011749,266.632660 313.740479,265.628906 313.356995,261.355835 
	C312.987457,257.237457 313.161041,253.070328 312.980469,248.089447 
	C311.979126,247.688232 310.978302,246.937729 309.976379,246.936279 
	C272.569122,246.882080 235.161758,246.876862 197.754822,246.993820 
	C196.555649,246.997574 195.360703,248.349350 194.002594,249.988495 
	C194.043732,284.974060 194.084869,319.959595 194.034546,355.750793 
	C196.014420,356.456085 197.991882,357.768280 199.974518,357.776093 
	C232.260574,357.903961 264.547302,357.866211 296.833893,357.867218 
	C302.325928,357.867401 307.818146,357.848236 313.309937,357.887604 
	C316.490479,357.910370 318.328857,356.793854 318.192993,353.221039 
	C318.028687,348.900085 318.353516,344.550842 317.990906,340.253967 
	C317.900543,339.183502 315.981506,338.267365 313.990662,337.126831 
	C283.321869,337.105988 252.653061,337.085144 221.668182,336.350006 
	C221.116409,334.512268 220.196716,332.696045 220.087906,330.832428 
	C219.846451,326.697296 219.999176,322.538361 220.014023,318.389191 
	C220.036240,312.180603 220.269180,311.918091 226.471268,311.911621 
	C244.229889,311.893127 261.988892,311.955963 279.746521,311.824432 
	C281.303619,311.812927 282.851898,310.611755 284.482422,309.043701 
	C284.294678,303.453888 284.106934,297.864105 283.552032,291.499176 
z"/>
<path fill="#B0A777" opacity="1.000000" stroke="none" 
	d="
M321.939270,170.545593 
	C319.792511,170.397018 317.645874,170.120895 315.498962,170.119034 
	C283.230896,170.091171 250.962448,170.008789 218.694901,170.140091 
	C204.110809,170.199463 189.528503,170.700729 174.139999,171.021317 
	C172.423233,171.605057 171.511871,172.168976 170.600510,172.732895 
	C169.008728,172.768539 167.416931,172.804184 165.259399,172.675201 
	C164.129166,172.674026 163.564697,172.837494 163.000229,173.000961 
	C161.296921,173.075516 159.593597,173.150055 157.128693,173.231140 
	C154.764832,174.055481 153.162582,174.873276 151.560318,175.691086 
	C147.658783,175.809235 143.757263,175.927383 139.101624,176.065216 
	C137.441269,176.642624 136.535004,177.200363 135.628754,177.758102 
	C133.164047,177.843628 130.635040,178.289536 128.261108,177.866119 
	C127.031532,177.646790 126.076660,175.887283 125.329559,174.270630 
	C128.090576,172.749146 130.519699,171.780624 133.319946,170.849152 
	C134.427917,170.800568 135.164749,170.714951 136.328964,170.731415 
	C143.152542,170.053818 149.537292,169.159225 155.947403,168.518768 
	C168.618759,167.252731 181.293472,165.263657 193.985764,165.106705 
	C231.071228,164.648117 268.169617,164.652618 305.255096,165.110886 
	C317.275208,165.259415 329.291779,167.199097 341.271210,168.641205 
	C350.274536,169.725052 359.215973,171.322998 368.184967,172.692078 
	C368.593201,172.743576 369.001434,172.795074 369.898071,173.120941 
	C372.036499,174.238998 373.686523,175.082672 375.336548,175.926361 
	C375.303589,176.133972 375.270660,176.341568 374.925598,176.879822 
	C374.398651,177.467484 374.183807,177.724442 373.968964,177.981400 
	C370.386749,177.912811 366.804504,177.844223 362.644257,177.494217 
	C361.359833,176.904266 360.653473,176.595718 359.947083,176.287186 
	C355.911682,175.860809 351.876312,175.434433 347.193481,174.738129 
	C344.677460,174.121292 342.808807,173.774399 340.940186,173.427505 
	C337.375763,173.200577 333.811340,172.973633 329.629211,172.438629 
	C326.654114,171.602249 324.296692,171.073914 321.939270,170.545593 
z"/>
<path fill="#E0DCCA" opacity="1.000000" stroke="none" 
	d="
M368.245117,172.334778 
	C359.215973,171.322998 350.274536,169.725052 341.271210,168.641205 
	C329.291779,167.199097 317.275208,165.259415 305.255096,165.110886 
	C268.169617,164.652618 231.071228,164.648117 193.985764,165.106705 
	C181.293472,165.263657 168.618759,167.252731 155.947403,168.518768 
	C149.537292,169.159225 143.152542,170.053818 136.416611,170.449707 
	C136.432907,169.447708 136.788940,168.829498 137.397339,167.773056 
	C134.510788,167.773056 132.190475,167.773056 130.062164,167.521912 
	C131.493896,166.566376 132.733597,165.861984 133.973297,165.157593 
	C136.307968,165.058334 138.642639,164.959106 141.820892,164.875854 
	C145.507996,164.027863 148.351532,163.163910 151.195068,162.299927 
	C152.211731,162.259506 153.228409,162.219070 154.915466,162.431335 
	C159.589310,162.212250 163.614716,161.872452 167.586761,161.211761 
	C169.510483,160.891785 171.334061,159.969772 173.202988,159.320312 
	C175.495102,159.441849 177.787231,159.563400 180.881927,159.795074 
	C185.146515,159.568405 188.608536,159.231613 192.534698,158.892365 
	C227.874084,158.892914 262.749329,158.915558 297.624512,158.881866 
	C304.401489,158.875320 311.178284,158.649323 318.036133,158.795380 
	C318.816711,159.262161 319.516327,159.458084 320.591339,159.713593 
	C321.978943,159.820892 322.991150,159.868591 324.168182,160.175720 
	C325.221558,160.344284 326.110046,160.253418 327.307495,160.158356 
	C328.025574,160.188522 328.434723,160.222916 328.981995,160.611908 
	C339.770782,162.936508 350.421478,164.906479 361.480530,166.921509 
	C364.593994,167.284058 367.299133,167.601562 370.217773,168.200928 
	C371.467377,168.453598 372.503479,168.424423 373.539581,168.395233 
	C373.319763,167.597733 373.099976,166.800232 372.628662,165.742920 
	C370.153015,164.438416 367.928894,163.393692 365.704773,162.348984 
	C368.635071,163.032150 371.720612,163.364426 374.423981,164.560471 
	C375.608124,165.084351 376.500458,167.358063 376.544647,168.865967 
	C376.564117,169.528900 374.190643,170.415207 372.802399,170.923843 
	C371.367340,171.449631 369.809448,171.640244 368.245117,172.334778 
M191.660889,162.035065 
	C233.687241,162.035065 275.713593,162.035065 317.739929,162.035065 
	C317.738281,161.757019 317.736633,161.478973 317.735016,161.200928 
	C273.515045,161.200928 229.295074,161.200928 185.075119,161.200928 
	C185.071152,161.478958 185.067184,161.757004 185.063232,162.035034 
	C186.949707,162.035034 188.836182,162.035034 191.660889,162.035065 
z"/>
<path fill="#CDC8AB" opacity="1.000000" stroke="none" 
	d="
M270.032227,99.555099 
	C268.863373,99.458923 267.618195,99.024452 266.152130,97.922478 
	C264.979492,95.383659 263.234711,93.521759 263.212311,91.639397 
	C263.112000,83.195419 263.513672,74.745872 263.689362,66.297409 
	C263.702209,65.681114 263.358337,65.057396 263.180298,64.437126 
	C262.935516,64.476959 262.690704,64.516792 262.445923,64.556625 
	C262.030487,68.371185 261.615082,72.185745 260.822693,76.012390 
	C259.700317,76.063110 258.954865,76.101746 258.175293,75.684570 
	C258.017273,72.605682 257.893433,69.982605 257.750000,66.945068 
	C252.572678,69.182304 254.398560,73.052841 253.776398,76.409088 
	C252.769592,77.754921 251.992493,78.856506 251.215408,79.958099 
	C252.202225,80.469688 253.316406,80.832375 254.139023,81.535942 
	C254.917206,82.201515 255.389297,83.224983 255.900482,84.378174 
	C256.220428,86.159714 256.635895,87.654121 257.235474,89.402390 
	C260.133972,92.065285 258.123840,92.644600 256.063385,92.735588 
	C254.828186,92.790115 253.560165,92.101234 252.306885,91.746483 
	C252.219559,92.435059 252.132233,93.123634 252.044891,93.812210 
	C255.061035,93.904350 258.077179,93.996490 261.077240,94.443443 
	C262.099487,95.872887 263.137848,96.947517 264.176178,98.022148 
	C263.918671,98.802948 263.900635,99.896461 263.361389,100.309364 
	C261.247620,101.927971 250.947723,100.804955 248.151154,98.634087 
	C249.337540,97.760986 250.449203,96.942894 250.873962,96.630302 
	C250.198227,93.810013 249.180283,91.427292 249.130219,89.024399 
	C248.930496,79.437813 249.163620,69.842133 248.958008,60.255787 
	C248.874344,56.355141 248.079697,52.469749 247.567337,48.237209 
	C245.426224,50.266556 243.514587,52.078407 241.240967,53.877537 
	C247.842773,43.171200 247.421204,30.972233 248.154968,18.969282 
	C248.273758,17.026262 249.671616,15.161435 250.478241,13.260460 
	C251.600586,15.173235 253.479904,16.998081 253.714096,19.014032 
	C254.722824,27.697786 255.121033,36.450428 255.994034,45.152653 
	C256.615692,51.349579 260.828094,54.980423 267.329895,55.074421 
	C270.023895,55.113369 272.380829,55.764942 272.098541,58.655724 
	C271.878082,60.913502 270.729156,64.365875 269.135620,64.950356 
	C265.203735,66.392487 264.777863,68.806641 264.944214,72.233810 
	C265.129181,76.045578 265.267792,79.898697 264.923370,83.688072 
	C264.380066,89.665802 265.896332,94.811775 270.032227,99.555099 
z"/>
<path fill="#BACDE4" opacity="1.000000" stroke="none" 
	d="
M72.385986,250.533264 
	C71.893967,249.984268 71.401947,249.435272 70.444687,248.437775 
	C68.414795,247.635666 66.854736,247.002441 65.284691,246.976624 
	C58.290039,246.861557 51.285603,247.105820 44.298702,246.845016 
	C40.238503,246.693451 38.994408,248.524063 38.997555,252.174881 
	C39.026291,285.491455 39.033684,318.808105 38.987896,352.124634 
	C38.982487,356.060364 40.531895,357.998962 44.627312,357.878510 
	C49.287659,357.741394 53.955196,357.866852 58.619324,357.835571 
	C64.845833,357.793823 65.179756,357.479889 65.184448,351.371216 
	C65.200569,330.381744 65.181870,309.392303 65.208748,288.402863 
	C65.211075,286.584045 65.411385,284.761688 65.588852,282.947754 
	C65.890755,279.861847 67.630188,280.126526 69.699974,281.244171 
	C69.699974,281.244171 69.800667,281.199036 69.845123,281.540894 
	C70.500587,282.374451 71.111610,282.866150 71.722626,283.357880 
	C71.827774,283.643494 71.998955,283.881653 72.536896,284.468933 
	C73.456985,285.325287 74.076340,285.785004 74.695694,286.244720 
	C74.695694,286.244720 74.791695,286.224609 74.824280,286.578003 
	C75.789642,287.710266 76.722420,288.489197 77.655197,289.268127 
	C77.655190,289.268127 77.717255,289.275848 77.778282,289.595947 
	C78.408150,290.439270 78.976990,290.962524 79.545830,291.485779 
	C79.545830,291.485779 79.627609,291.824524 79.786240,292.278320 
	C80.465523,293.652344 80.986168,294.572571 81.376320,295.623474 
	C81.245827,295.754150 80.984848,296.015533 80.984848,296.015533 
	C78.391182,293.775757 75.732254,291.606110 73.225197,289.273285 
	C71.331337,287.511017 69.631607,285.540100 67.004417,282.777710 
	C67.004417,285.736511 67.004547,287.481873 67.004387,289.227234 
	C67.002388,310.877930 67.018280,332.528656 66.986420,354.179291 
	C66.977837,360.013031 66.116653,360.826141 60.320225,360.852905 
	C54.990940,360.877502 49.659206,360.953613 44.332626,360.830658 
	C38.093830,360.686615 37.015499,359.562531 37.013229,353.550598 
	C37.000343,319.409088 37.090473,285.267181 36.911682,251.126602 
	C36.885860,246.196335 38.619465,244.776062 43.304718,244.952225 
	C51.287643,245.252380 59.293655,244.907486 67.281227,245.137238 
	C69.236481,245.193497 71.727722,245.875671 73.007286,247.201584 
	C86.691757,261.381897 100.185890,275.745972 113.697777,290.092102 
	C113.966270,290.377136 113.818916,291.053833 113.758545,291.919800 
	C111.990669,290.950470 110.329811,289.609131 108.336662,287.759552 
	C105.097427,284.424469 102.190483,281.597656 99.283539,278.770813 
	C99.283539,278.770813 99.159096,278.818573 99.141846,278.445496 
	C97.528473,276.578735 95.932343,275.085052 94.336212,273.591400 
	C93.089600,272.156067 91.842987,270.720734 90.284157,268.799438 
	C88.724884,267.141602 87.477829,265.969696 86.230774,264.797791 
	C86.230782,264.797791 86.055199,264.942230 86.061668,264.544525 
	C85.121864,263.362762 84.175583,262.578735 83.229301,261.794678 
	C83.229301,261.794678 83.071358,261.978882 83.073227,261.581970 
	C82.497490,260.653046 81.919876,260.121033 81.342270,259.589020 
	C80.853615,259.049133 80.364960,258.509247 79.536606,257.527100 
	C78.229538,256.263580 77.262184,255.442276 76.294823,254.620972 
	C75.852341,254.038208 75.409859,253.455429 74.608109,252.459595 
	C73.627892,251.542114 73.006943,251.037689 72.385986,250.533264 
z"/>
<path fill="#BACDE4" opacity="1.000000" stroke="none" 
	d="
M138.412781,355.958069 
	C138.875458,355.623383 139.212814,355.659637 139.972961,356.100464 
	C141.126892,356.888336 141.856888,357.602020 142.589294,357.604492 
	C151.403534,357.634186 160.219162,357.623138 169.032104,357.479340 
	C172.649399,357.420288 173.027695,354.906921 173.012039,351.910797 
	C172.924973,335.251465 172.958481,318.591461 172.956558,301.931702 
	C172.954651,285.605103 172.861603,269.277557 173.025742,252.952576 
	C173.070816,248.468079 171.595764,246.548035 166.935883,246.860107 
	C162.292023,247.171112 157.610977,246.930389 152.946228,246.924728 
	C146.376007,246.916748 146.152390,247.096298 146.147415,253.562347 
	C146.130798,275.220062 146.148895,296.877808 146.132339,318.535522 
	C146.131012,320.270874 145.966370,322.006104 145.819443,324.879150 
	C142.674438,322.785736 140.440872,321.299042 138.207306,319.812317 
	C138.207321,319.812286 138.016327,319.985352 138.052216,319.590393 
	C137.492111,318.671570 136.896133,318.147736 136.300156,317.623901 
	C136.300156,317.623901 136.209473,317.283783 136.007782,316.845825 
	C134.985443,315.850494 134.164795,315.293091 133.344162,314.735687 
	C133.344162,314.735687 133.283661,314.710175 133.212753,314.376099 
	C132.225082,313.267548 131.308304,312.493073 130.391525,311.718628 
	C130.391525,311.718628 130.320480,311.684296 130.234009,311.365540 
	C129.558670,310.549469 128.969818,310.052185 128.380951,309.554871 
	C127.132370,308.123016 125.883774,306.691132 124.341461,304.788513 
	C123.859703,303.713501 123.671677,303.109253 123.626038,302.365601 
	C123.768425,302.226196 124.052994,301.947205 124.052994,301.947205 
	C128.517105,306.281219 133.094421,310.507111 137.388870,315.003174 
	C139.075211,316.768677 140.128510,319.138855 141.470108,321.233643 
	C142.229355,320.720917 142.988602,320.208160 143.747833,319.695435 
	C143.843094,317.982483 144.019669,316.269623 144.021271,314.556610 
	C144.040878,293.392151 144.141266,272.226746 143.950485,251.063980 
	C143.909851,246.556961 145.158478,244.711578 149.881302,244.952148 
	C156.363968,245.282364 162.880829,245.198334 169.373383,244.990601 
	C174.010132,244.842239 175.979523,246.525864 175.962692,251.368576 
	C175.844055,285.531281 175.853256,319.694702 175.955124,353.857513 
	C175.969437,358.657501 173.241745,360.598267 169.283859,360.758423 
	C161.464157,361.074829 153.595276,361.221619 145.805527,360.644684 
	C143.207214,360.452240 140.788345,357.836792 138.412781,355.958069 
z"/>
<path fill="#CCC6A7" opacity="1.000000" stroke="none" 
	d="
M187.906647,148.906693 
	C190.453629,145.685654 192.746521,142.217117 195.596481,139.291183 
	C203.344864,131.336304 210.764359,122.903160 219.397018,116.016991 
	C226.408463,110.424057 234.571304,105.574341 243.008743,102.699921 
	C249.292587,100.559174 256.832764,102.147522 263.811157,101.981926 
	C266.263672,101.923721 268.709625,101.588531 271.890381,101.213737 
	C273.830902,101.330231 275.039612,101.612808 276.248291,101.895378 
	C294.774414,103.260788 309.925079,111.220474 321.648834,125.618294 
	C317.814423,123.056068 314.405273,119.983162 310.661713,117.393822 
	C309.672882,116.709885 307.652405,117.517525 305.824402,117.700531 
	C305.028778,117.507317 304.514374,117.253815 303.971863,116.633614 
	C301.781586,111.352432 296.353943,113.340324 292.718170,111.035706 
	C292.492218,111.008369 292.040588,110.951057 291.982056,110.618217 
	C289.949677,109.856140 287.975830,109.426903 285.633636,108.935654 
	C283.563110,108.502174 281.860901,108.130714 280.067932,107.459137 
	C279.284241,106.814613 278.591370,106.470215 277.460266,106.085846 
	C274.076233,105.675430 271.139648,105.114868 268.182861,104.971466 
	C260.441833,104.596054 251.995178,102.287231 245.085968,104.562950 
	C229.090912,109.831306 215.824326,120.006775 204.756241,132.982269 
	C199.759445,138.840179 193.839310,143.910446 188.230225,149.230225 
	C188.122360,149.122375 187.906631,148.906693 187.906647,148.906693 
z"/>
<path fill="#C4BD9B" opacity="1.000000" stroke="none" 
	d="
M361.072174,166.876450 
	C350.421478,164.906479 339.770782,162.936508 329.348328,160.523926 
	C330.228638,159.787018 330.880737,159.492737 331.532837,159.198456 
	C330.929047,158.632523 330.325256,158.066559 329.817200,157.269531 
	C329.950439,156.874039 329.987976,156.709579 330.417175,156.627899 
	C331.873932,156.787338 332.939026,156.863998 334.232758,157.232773 
	C336.976837,158.013229 339.492249,158.501556 342.369019,159.043243 
	C344.153625,159.391418 345.576904,159.686249 347.213470,160.261505 
	C349.306641,161.059341 351.186523,161.576736 353.066406,162.094116 
	C353.255768,161.688690 353.445129,161.283279 353.634491,160.877853 
	C352.136932,159.884964 350.639343,158.892059 348.921143,157.639099 
	C340.060181,148.967804 331.419861,140.556564 323.077881,131.956818 
	C324.063751,131.136536 324.751251,130.504776 325.438751,129.873016 
	C326.761658,130.833176 328.084534,131.793350 329.714294,133.257233 
	C331.626129,135.210892 333.231110,136.660812 334.836090,138.110733 
	C334.836090,138.110733 334.893829,138.105820 334.950134,138.452911 
	C335.958313,139.566208 336.910156,140.332397 337.862030,141.098602 
	C337.862030,141.098602 337.933563,141.061279 337.981171,141.397476 
	C338.640778,142.190018 339.252808,142.646362 339.864807,143.102707 
	C340.017609,143.400253 340.223053,143.655396 340.750153,144.302628 
	C341.626740,145.197586 342.234314,145.658081 342.841888,146.118561 
	C345.031982,147.969971 347.222076,149.821365 349.839539,152.142868 
	C352.507904,154.078476 354.748962,155.543991 356.989990,157.009491 
	C356.989990,157.009491 357.416840,157.112839 357.692078,157.474915 
	C358.383484,158.796783 358.799713,159.756592 358.862427,160.825989 
	C358.463898,162.152374 358.051392,163.523758 358.479553,164.541382 
	C358.887787,165.511597 360.172699,166.112946 361.072174,166.876450 
z"/>
<path fill="#CDC8AB" opacity="1.000000" stroke="none" 
	d="
M240.474594,53.963478 
	C238.065872,55.915459 235.266586,57.949486 231.925858,60.376923 
	C240.518600,64.152245 237.946381,71.936546 237.817627,78.675346 
	C237.704071,84.617836 239.858200,91.000183 235.681625,96.449356 
	C232.411636,100.715714 228.454498,103.744736 222.318588,102.449471 
	C223.703064,101.346947 225.281097,100.174667 227.049744,99.668427 
	C232.444534,98.124290 235.005569,95.058228 235.035217,89.484314 
	C235.068726,83.182213 235.277817,76.865997 234.906372,70.585732 
	C234.791061,68.636124 232.951477,66.821312 232.047501,64.876823 
	C231.027145,62.681973 229.398911,60.353710 229.557556,58.195396 
	C229.641861,57.048748 232.872604,55.946106 234.823318,55.181423 
	C236.471970,54.535149 238.322708,54.404423 240.474594,53.963478 
z"/>
<path fill="#BACDE4" opacity="1.000000" stroke="none" 
	d="
M111.899826,327.562439 
	C111.912941,327.197510 112.374588,327.041290 112.667801,327.397278 
	C113.936157,328.557648 114.911301,329.362030 115.886444,330.166382 
	C116.700447,331.033051 117.514450,331.899719 118.628006,333.276489 
	C119.902168,334.596161 120.876762,335.405670 121.851364,336.215210 
	C122.421791,336.685089 122.992226,337.154999 123.773529,338.157349 
	C124.893211,339.537567 125.802032,340.385284 126.710846,341.233002 
	C126.710846,341.233002 126.822121,341.183746 126.852356,341.545105 
	C127.808388,342.692078 128.734177,343.477661 129.659958,344.263245 
	C129.659958,344.263245 129.721390,344.272003 129.793243,344.590851 
	C130.444351,345.424896 131.023605,345.940094 131.602875,346.455292 
	C131.602859,346.455292 131.688110,346.786804 131.837463,347.247314 
	C132.455048,348.101746 132.923294,348.495728 133.391541,348.889679 
	C133.405685,349.217163 133.451782,349.540070 133.508667,350.098755 
	C132.477921,350.076721 131.138992,350.139038 130.510269,349.501221 
	C124.804558,343.712952 119.171432,337.849976 113.655075,331.881317 
	C112.726585,330.876709 112.459427,329.260834 111.899826,327.562439 
z"/>
<path fill="#B6AE81" opacity="1.000000" stroke="none" 
	d="
M325.304779,129.552673 
	C324.751251,130.504776 324.063751,131.136536 322.838623,131.838623 
	C321.856049,131.613434 321.411163,131.317917 320.948517,130.688080 
	C320.272156,129.926346 319.613525,129.498917 318.790375,128.789337 
	C317.026886,127.043564 315.427887,125.579941 313.739075,123.791771 
	C311.468567,121.932693 309.287872,120.398155 306.877991,118.717812 
	C306.467773,118.261421 306.286713,117.950836 306.105652,117.640259 
	C307.652405,117.517525 309.672882,116.709885 310.661713,117.393822 
	C314.405273,119.983162 317.814423,123.056068 321.699585,125.957787 
	C323.090607,127.055771 324.130707,128.144043 325.304779,129.552673 
z"/>
<path fill="#BACDE4" opacity="1.000000" stroke="none" 
	d="
M89.232071,304.082458 
	C89.678879,303.775024 90.045898,303.830231 90.786362,304.255737 
	C92.102921,305.422729 93.046021,306.219421 93.989128,307.016083 
	C94.098694,307.334015 94.289993,307.591125 94.872520,308.196106 
	C96.016945,309.156403 96.851875,309.707947 97.686798,310.259521 
	C97.686790,310.259521 97.784019,310.219452 97.827332,310.593933 
	C101.557434,315.010376 105.244217,319.052307 108.931000,323.094238 
	C109.247139,323.573883 109.563271,324.053528 109.849281,324.820038 
	C109.018646,324.930786 107.919945,325.030701 107.462662,324.536804 
	C101.307037,317.887848 95.240738,311.156189 89.232071,304.082458 
z"/>
<path fill="#E0DCCA" opacity="1.000000" stroke="none" 
	d="
M149.104782,152.127884 
	C144.924561,154.960693 140.744354,157.793518 136.016296,160.866455 
	C134.933243,161.643234 134.398041,162.179886 133.862839,162.716553 
	C133.862839,162.716553 133.767395,162.757111 133.358292,162.806320 
	C129.714066,162.975403 126.820679,163.494629 126.809738,167.860092 
	C125.965996,167.946945 125.481544,167.975677 124.997101,168.004425 
	C125.514854,166.175934 125.460381,163.375854 126.644363,162.678543 
	C133.696915,158.524841 141.035583,154.856934 148.660675,151.299469 
	C149.063705,151.757996 149.084244,151.942932 149.104782,152.127884 
z"/>
<path fill="#B0A777" opacity="1.000000" stroke="none" 
	d="
M361.480530,166.921509 
	C360.172699,166.112946 358.887787,165.511597 358.479553,164.541382 
	C358.051392,163.523758 358.463898,162.152374 359.171143,161.037231 
	C361.531555,161.457336 363.229797,161.775833 364.928070,162.094345 
	C364.928070,162.094345 365.319061,162.215973 365.511902,162.282471 
	C367.928894,163.393692 370.153015,164.438416 372.365479,165.868866 
	C371.570587,166.809433 370.787415,167.364227 370.004242,167.919037 
	C367.299133,167.601562 364.593994,167.284058 361.480530,166.921509 
z"/>
<path fill="#CDC8AB" opacity="1.000000" stroke="none" 
	d="
M203.913116,107.360825 
	C203.490875,108.482239 202.936081,109.801590 201.949356,110.366562 
	C195.613403,113.994392 189.182785,117.456879 182.387726,120.982773 
	C181.992172,120.991859 181.889526,120.888359 181.932129,120.592697 
	C182.004349,119.899818 182.033951,119.502602 182.063568,119.105377 
	C183.821304,117.807846 185.579056,116.510323 187.969940,115.071831 
	C189.454681,114.042931 190.306274,113.154999 191.157883,112.267075 
	C191.562515,112.197960 191.967163,112.128845 192.991791,111.999863 
	C194.115326,111.357681 194.618851,110.775375 195.122375,110.193085 
	C195.809662,110.104599 196.496933,110.016113 197.881836,109.912445 
	C199.763611,109.005157 200.947739,108.113052 202.131882,107.220947 
	C202.614868,107.217278 203.097870,107.213608 203.913116,107.360825 
z"/>
<path fill="#BACDE4" opacity="1.000000" stroke="none" 
	d="
M113.886375,294.028076 
	C113.811424,293.655273 113.736473,293.282440 113.676682,292.626129 
	C117.104515,295.321136 120.517174,298.299683 123.991409,301.612701 
	C124.052994,301.947205 123.768425,302.226196 123.360413,302.204834 
	C122.024940,301.733673 121.097481,301.283905 120.170029,300.834106 
	C120.170029,300.834106 120.001930,300.999298 120.024742,300.586975 
	C118.454971,298.707245 116.862381,297.239838 115.269798,295.772430 
	C115.269798,295.772430 115.113472,295.868927 115.123238,295.511719 
	C114.717461,294.779022 114.301918,294.403564 113.886375,294.028076 
z"/>
<path fill="#CDC8AB" opacity="1.000000" stroke="none" 
	d="
M149.457581,152.096130 
	C149.084244,151.942932 149.063705,151.757996 149.026978,151.294525 
	C152.380615,147.972672 155.750458,144.929321 159.453766,141.835510 
	C156.461609,145.211472 153.136002,148.637924 149.457581,152.096130 
z"/>
<path fill="#F4F3ED" opacity="1.000000" stroke="none" 
	d="
M124.996239,168.382187 
	C125.481544,167.975677 125.965996,167.946945 127.145256,167.886414 
	C128.516754,167.827438 129.193451,167.800247 129.870148,167.773056 
	C132.190475,167.773056 134.510788,167.773056 137.397339,167.773056 
	C136.788940,168.829498 136.432907,169.447708 135.989243,170.347626 
	C135.164749,170.714951 134.427917,170.800568 133.049042,170.601379 
	C129.945511,170.553284 127.484016,170.790009 125.022530,171.026733 
	C125.013481,170.271133 125.004433,169.515549 124.996239,168.382187 
z"/>
<path fill="#E0DCCA" opacity="1.000000" stroke="none" 
	d="
M124.909760,171.278793 
	C127.484016,170.790009 129.945511,170.553284 132.677917,170.564331 
	C130.519699,171.780624 128.090576,172.749146 125.315773,173.855286 
	C124.705299,173.796616 124.440491,173.600342 124.061722,173.178070 
	C124.230850,172.478317 124.513916,172.004593 124.909760,171.278793 
z"/>
<path fill="#E0DCCA" opacity="1.000000" stroke="none" 
	d="
M364.928101,161.730133 
	C363.229797,161.775833 361.531555,161.457336 359.524597,160.927612 
	C358.799713,159.756592 358.383484,158.796783 357.904755,157.529495 
	C360.204193,158.603302 362.566132,159.984619 364.928101,161.730133 
z"/>
<path fill="#E0DCCA" opacity="1.000000" stroke="none" 
	d="
M375.557281,175.691833 
	C373.686523,175.082672 372.036499,174.238998 370.206726,173.104279 
	C372.927216,171.555969 375.218292,171.623703 375.557281,175.691833 
z"/>
<path fill="#CDC8AB" opacity="1.000000" stroke="none" 
	d="
M218.831924,102.350983 
	C217.345215,103.325783 215.470093,104.151466 213.207764,104.893311 
	C214.694870,103.940269 216.569199,103.071068 218.831924,102.350983 
z"/>
<path fill="#E0DCCA" opacity="1.000000" stroke="none" 
	d="
M356.955719,156.660156 
	C354.748962,155.543991 352.507904,154.078476 350.138245,152.299683 
	C352.313538,153.427887 354.617493,154.869339 356.955719,156.660156 
z"/>
<path fill="#BACDE4" opacity="1.000000" stroke="none" 
	d="
M85.041428,297.933807 
	C85.457382,298.620239 85.873322,299.306702 86.313385,300.290680 
	C84.593857,299.291687 82.850227,297.995178 81.045723,296.357086 
	C80.984848,296.015533 81.245827,295.754150 81.632843,295.790344 
	C83.027054,296.528961 84.034241,297.231384 85.041428,297.933807 
z"/>
<path fill="#E0DCCA" opacity="1.000000" stroke="none" 
	d="
M334.851196,137.758362 
	C333.231110,136.660812 331.626129,135.210892 329.972107,133.427933 
	C331.570801,134.531921 333.218567,135.968964 334.851196,137.758362 
z"/>
<path fill="#E4E1D1" opacity="1.000000" stroke="none" 
	d="
M208.961395,105.055054 
	C209.136124,105.362267 209.190231,105.730530 208.817261,105.901749 
	C207.959106,106.451126 207.473923,106.829292 206.988754,107.207451 
	C206.293320,107.231499 205.597900,107.255547 204.559708,107.251282 
	C205.740189,106.397919 207.263428,105.572876 208.961395,105.055054 
z"/>
<path fill="#E4E1D1" opacity="1.000000" stroke="none" 
	d="
M201.766052,107.158058 
	C200.947739,108.113052 199.763611,109.005157 198.226410,109.875992 
	C199.048996,108.934868 200.224609,108.015022 201.766052,107.158058 
z"/>
<path fill="#CDC8AB" opacity="1.000000" stroke="none" 
	d="
M182.043488,121.043617 
	C180.731415,122.117081 179.368027,123.138794 177.573853,123.930847 
	C177.126404,123.516762 177.109772,123.332321 177.093140,123.147873 
	C177.956146,122.611382 178.819153,122.074890 180.161774,121.271271 
	C181.057449,120.965553 181.473480,120.926956 181.889526,120.888351 
	C181.889526,120.888359 181.992172,120.991859 182.043488,121.043617 
z"/>
<path fill="#CDC8AB" opacity="1.000000" stroke="none" 
	d="
M276.111206,101.598236 
	C275.039612,101.612808 273.830902,101.330231 272.246338,100.999863 
	C271.870422,100.952057 271.872009,100.628563 271.910706,100.472969 
	C273.290985,100.645287 274.632538,100.973190 276.111206,101.598236 
z"/>
<path fill="#E0DCCA" opacity="1.000000" stroke="none" 
	d="
M161.940765,138.290298 
	C161.733902,139.207611 161.192932,140.025879 160.352173,140.926758 
	C160.570465,140.069992 161.088577,139.130630 161.940765,138.290298 
z"/>
<path fill="#BACDE4" opacity="1.000000" stroke="none" 
	d="
M86.307587,301.037689 
	C87.345093,301.466797 88.275566,302.260559 89.240448,303.370911 
	C88.250084,302.925781 87.225319,302.164032 86.307587,301.037689 
z"/>
<path fill="#E4E1D1" opacity="1.000000" stroke="none" 
	d="
M190.812927,112.214638 
	C190.306274,113.154999 189.454681,114.042931 188.264465,114.926163 
	C188.773224,114.001717 189.620590,113.081963 190.812927,112.214638 
z"/>
<path fill="#E0DCCA" opacity="1.000000" stroke="none" 
	d="
M174.918854,125.321991 
	C174.498993,126.344513 173.714020,127.266014 172.616547,128.258881 
	C173.053940,127.293808 173.803864,126.257393 174.918854,125.321991 
z"/>
<path fill="#E0DCCA" opacity="1.000000" stroke="none" 
	d="
M166.960754,133.245941 
	C166.555847,134.262527 165.778671,135.213531 164.693359,136.218964 
	C165.119675,135.242386 165.854095,134.211365 166.960754,133.245941 
z"/>
<path fill="#E0DCCA" opacity="1.000000" stroke="none" 
	d="
M337.867004,140.748840 
	C336.910156,140.332397 335.958313,139.566208 334.947876,138.481796 
	C335.883514,138.908752 336.877777,139.653915 337.867004,140.748840 
z"/>
<path fill="#BACDE4" opacity="1.000000" stroke="none" 
	d="
M138.211761,353.936981 
	C138.284988,354.274994 138.358231,354.612976 138.422821,355.208008 
	C137.575516,354.973785 136.736832,354.482544 135.921219,353.529205 
	C135.944290,353.067078 136.154816,352.846710 136.405579,353.002014 
	C137.174820,353.417206 137.693298,353.677094 138.211761,353.936981 
z"/>
<path fill="#BACDE4" opacity="1.000000" stroke="none" 
	d="
M133.505173,350.858459 
	C133.989334,350.448578 134.310486,350.465668 134.916107,350.907166 
	C135.521896,351.775482 135.838364,352.311096 136.154816,352.846710 
	C136.154816,352.846710 135.944290,353.067078 135.840881,353.181946 
	C134.940674,352.595795 134.143845,351.894806 133.505173,350.858459 
z"/>
<path fill="#E0DCCA" opacity="1.000000" stroke="none" 
	d="
M176.747253,123.153419 
	C177.109772,123.332321 177.126404,123.516762 177.217377,123.970467 
	C176.847824,124.565758 176.403961,124.891769 175.691223,125.257202 
	C175.748718,124.584076 176.075058,123.871521 176.747253,123.153419 
z"/>
<path fill="#E0DCCA" opacity="1.000000" stroke="none" 
	d="
M342.840790,145.784851 
	C342.234314,145.658081 341.626740,145.197586 340.955933,144.439301 
	C341.541687,144.578064 342.190674,145.014603 342.840790,145.784851 
z"/>
<path fill="#E0DCCA" opacity="1.000000" stroke="none" 
	d="
M339.869507,142.768250 
	C339.252808,142.646362 338.640778,142.190018 337.966492,141.435059 
	C338.560883,141.568878 339.217560,142.001343 339.869507,142.768250 
z"/>
<path fill="#E0DCCA" opacity="1.000000" stroke="none" 
	d="
M163.916229,136.296997 
	C163.830597,136.976517 163.392212,137.569321 162.669250,138.216644 
	C162.777618,137.584198 163.170563,136.897247 163.916229,136.296997 
z"/>
<path fill="#E0DCCA" opacity="1.000000" stroke="none" 
	d="
M181.932129,120.592697 
	C181.473480,120.926956 181.057449,120.965553 180.327255,121.006683 
	C180.480743,120.387016 180.948380,119.764816 181.739807,119.123993 
	C182.033951,119.502602 182.004349,119.899818 181.932129,120.592697 
z"/>
<path fill="#E4E1D1" opacity="1.000000" stroke="none" 
	d="
M194.791855,110.164444 
	C194.618851,110.775375 194.115326,111.357681 193.297363,111.962051 
	C193.475739,111.368011 193.968536,110.751907 194.791855,110.164444 
z"/>
<path fill="#E0DCCA" opacity="1.000000" stroke="none" 
	d="
M374.248932,178.016663 
	C374.183807,177.724442 374.398651,177.467484 374.871338,177.190414 
	C375.129242,177.170319 375.140198,177.652008 375.113770,177.892929 
	C374.901184,178.106552 374.715027,178.079239 374.248932,178.016663 
z"/>
<path fill="#1062AD" opacity="1.000000" stroke="none" 
	d="
M392.494476,343.006744 
	C391.213989,342.675934 390.374176,342.346344 389.534363,342.016724 
	C389.993073,341.434448 390.444000,340.352264 390.911682,340.344940 
	C397.853363,340.236237 404.797211,340.269928 411.756836,341.197845 
	C405.646301,344.068329 399.192413,342.488464 392.494476,343.006744 
z"/>
<path fill="#095EAC" opacity="1.000000" stroke="none" 
	d="
M399.634979,263.004028 
	C393.672241,263.003387 388.161011,263.003387 382.649811,263.003387 
	C382.653381,262.540222 382.656982,262.077087 382.660583,261.613922 
	C389.541138,261.613922 396.421692,261.613922 403.302246,261.613922 
	C403.354492,261.886719 403.406738,262.159546 403.459015,262.432343 
	C402.334839,262.623138 401.210663,262.813934 399.634979,263.004028 
z"/>
<path fill="#095EAC" opacity="1.000000" stroke="none" 
	d="
M460.637207,313.011780 
	C460.849731,319.018585 460.849731,324.680664 460.849731,330.342743 
	C460.241272,330.328064 459.632812,330.313416 459.024353,330.298767 
	C459.727356,324.425110 457.351593,318.504944 460.637207,313.011780 
z"/>
<path fill="#4E85BE" opacity="1.000000" stroke="none" 
	d="
M138.161865,320.173462 
	C140.440872,321.299042 142.674438,322.785736 145.819443,324.879150 
	C145.966370,322.006104 146.131012,320.270874 146.132339,318.535522 
	C146.148895,296.877808 146.130798,275.220062 146.147415,253.562347 
	C146.152390,247.096298 146.376007,246.916748 152.946228,246.924728 
	C157.610977,246.930389 162.292023,247.171112 166.935883,246.860107 
	C171.595764,246.548035 173.070816,248.468079 173.025742,252.952576 
	C172.861603,269.277557 172.954651,285.605103 172.956558,301.931702 
	C172.958481,318.591461 172.924973,335.251465 173.012039,351.910797 
	C173.027695,354.906921 172.649399,357.420288 169.032104,357.479340 
	C160.219162,357.623138 151.403534,357.634186 142.589294,357.604492 
	C141.856888,357.602020 141.126892,356.888336 140.227203,356.145386 
	C147.981659,355.537384 155.918304,354.901428 163.822800,355.179565 
	C168.936127,355.359497 170.217789,353.863861 170.170883,348.792053 
	C169.910767,320.664825 170.045959,292.533905 170.045807,264.404266 
	C170.045776,259.460602 170.045807,254.516937 170.045807,249.264618 
	C163.274368,249.264618 156.187805,249.264618 148.854965,249.264618 
	C148.854965,268.832733 148.854935,288.396393 148.854965,307.960022 
	C148.854980,311.288971 149.244553,314.678131 148.741821,317.929321 
	C148.273575,320.957642 146.855820,323.839142 145.856049,326.785278 
	C143.276184,324.701721 140.696320,322.618164 138.161865,320.173462 
z"/>
<path fill="#4E85BE" opacity="1.000000" stroke="none" 
	d="
M69.757584,280.885864 
	C67.630188,280.126526 65.890755,279.861847 65.588852,282.947754 
	C65.411385,284.761688 65.211075,286.584045 65.208748,288.402863 
	C65.181870,309.392303 65.200569,330.381744 65.184448,351.371216 
	C65.179756,357.479889 64.845833,357.793823 58.619324,357.835571 
	C53.955196,357.866852 49.287659,357.741394 44.627312,357.878510 
	C40.531895,357.998962 38.982487,356.060364 38.987896,352.124634 
	C39.033684,318.808105 39.026291,285.491455 38.997555,252.174881 
	C38.994408,248.524063 40.238503,246.693451 44.298702,246.845016 
	C51.285603,247.105820 58.290039,246.861557 65.284691,246.976624 
	C66.854736,247.002441 68.414795,247.635666 70.178772,248.342743 
	C61.561092,248.793716 52.744087,248.891220 43.049728,249.067764 
	C41.758247,250.297592 40.984600,251.447678 40.982319,252.599289 
	C40.917065,285.491730 40.906319,318.384399 41.017097,351.276581 
	C41.021313,352.528870 42.321262,353.776764 43.017418,355.026672 
	C47.843933,355.031342 52.691154,354.760834 57.490829,355.122040 
	C61.841400,355.449493 63.191452,354.104950 63.142742,349.606201 
	C62.906700,327.806030 62.990368,306.001617 63.122326,284.199677 
	C63.132771,282.474884 64.004639,280.389709 65.196709,279.185028 
	C65.835381,278.539551 68.015915,279.389679 69.487335,279.642487 
	C69.642715,279.669220 69.708069,280.219940 69.757584,280.885864 
z"/>
<path fill="#095EAC" opacity="1.000000" stroke="none" 
	d="
M43.009697,354.555389 
	C42.321262,353.776764 41.021313,352.528870 41.017097,351.276581 
	C40.906319,318.384399 40.917065,285.491730 40.982319,252.599289 
	C40.984600,251.447678 41.758247,250.297592 42.580559,249.082642 
	C42.993156,284.040344 42.997570,319.062225 43.009697,354.555389 
z"/>
<path fill="#4E85BE" opacity="1.000000" stroke="none" 
	d="
M108.952301,322.722656 
	C105.244217,319.052307 101.557434,315.010376 97.807678,310.642700 
	C101.487679,314.328339 105.230637,318.339691 108.952301,322.722656 
z"/>
<path fill="#4E85BE" opacity="1.000000" stroke="none" 
	d="
M99.217575,279.127930 
	C102.190483,281.597656 105.097427,284.424469 108.059433,287.588379 
	C105.126862,285.111969 102.139229,282.298492 99.217575,279.127930 
z"/>
<path fill="#4E85BE" opacity="1.000000" stroke="none" 
	d="
M85.028259,297.574249 
	C84.034241,297.231384 83.027054,296.528961 81.763336,295.659668 
	C80.986168,294.572571 80.465523,293.652344 79.889999,292.418304 
	C81.561775,293.807892 83.288429,295.511292 85.028259,297.574249 
z"/>
<path fill="#4E85BE" opacity="1.000000" stroke="none" 
	d="
M115.211548,296.132751 
	C116.862381,297.239838 118.454971,298.707245 120.106567,300.502289 
	C118.494812,299.384308 116.824051,297.938660 115.211548,296.132751 
z"/>
<path fill="#4E85BE" opacity="1.000000" stroke="none" 
	d="
M94.253052,273.962646 
	C95.932343,275.085052 97.528473,276.578735 99.183167,278.393188 
	C97.551125,277.253967 95.860512,275.793945 94.253052,273.962646 
z"/>
<path fill="#4E85BE" opacity="1.000000" stroke="none" 
	d="
M120.140564,301.191895 
	C121.097481,301.283905 122.024940,301.733673 123.218025,302.344238 
	C123.671677,303.109253 123.859703,303.713501 124.059952,304.636536 
	C122.751816,303.820099 121.431458,302.684875 120.140564,301.191895 
z"/>
<path fill="#4E85BE" opacity="1.000000" stroke="none" 
	d="
M86.188362,265.154541 
	C87.477829,265.969696 88.724884,267.141602 89.996689,268.650330 
	C88.729599,267.828522 87.437775,266.669891 86.188362,265.154541 
z"/>
<path fill="#4E85BE" opacity="1.000000" stroke="none" 
	d="
M136.405579,353.002014 
	C135.838364,352.311096 135.521896,351.775482 135.160156,350.929321 
	C136.274582,351.595215 137.434311,352.571625 138.402893,353.742493 
	C137.693298,353.677094 137.174820,353.417206 136.405579,353.002014 
z"/>
<path fill="#4E85BE" opacity="1.000000" stroke="none" 
	d="
M77.736351,288.903015 
	C76.722420,288.489197 75.789642,287.710266 74.800888,286.621094 
	C75.769119,287.053192 76.793312,287.795532 77.736351,288.903015 
z"/>
<path fill="#4E85BE" opacity="1.000000" stroke="none" 
	d="
M130.301483,312.082520 
	C131.308304,312.493073 132.225082,313.267548 133.206909,314.343781 
	C132.251801,313.912506 131.231613,313.179474 130.301483,312.082520 
z"/>
<path fill="#4E85BE" opacity="1.000000" stroke="none" 
	d="
M115.902214,329.809784 
	C114.911301,329.362030 113.936157,328.557648 112.910019,327.423889 
	C113.878685,327.880707 114.898331,328.666962 115.902214,329.809784 
z"/>
<path fill="#4E85BE" opacity="1.000000" stroke="none" 
	d="
M121.871979,335.847961 
	C120.876762,335.405670 119.902168,334.596161 118.861755,333.462708 
	C119.828156,333.919403 120.860374,334.700073 121.871979,335.847961 
z"/>
<path fill="#4E85BE" opacity="1.000000" stroke="none" 
	d="
M83.189850,262.157349 
	C84.175583,262.578735 85.121864,263.362762 86.135864,264.458405 
	C85.185867,264.020020 84.168137,263.270020 83.189850,262.157349 
z"/>
<path fill="#4E85BE" opacity="1.000000" stroke="none" 
	d="
M76.229492,255.000946 
	C77.262184,255.442276 78.229538,256.263580 79.289757,257.398254 
	C78.309792,256.934753 77.236977,256.157837 76.229492,255.000946 
z"/>
<path fill="#4E85BE" opacity="1.000000" stroke="none" 
	d="
M129.732086,343.898499 
	C128.734177,343.477661 127.808388,342.692078 126.821365,341.597473 
	C127.774826,342.036865 128.789520,342.785309 129.732086,343.898499 
z"/>
<path fill="#4E85BE" opacity="1.000000" stroke="none" 
	d="
M126.775742,340.874451 
	C125.802032,340.385284 124.893211,339.537567 123.963730,338.359802 
	C124.908920,338.858429 125.874771,339.687164 126.775742,340.874451 
z"/>
<path fill="#4E85BE" opacity="1.000000" stroke="none" 
	d="
M93.994156,306.647705 
	C93.046021,306.219421 92.102921,305.422729 91.059662,304.327148 
	C91.972733,304.778625 92.985954,305.528992 93.994156,306.647705 
z"/>
<path fill="#4E85BE" opacity="1.000000" stroke="none" 
	d="
M133.277054,315.096344 
	C134.164795,315.293091 134.985443,315.850494 135.906708,316.701752 
	C135.074875,316.482727 134.142410,315.969879 133.277054,315.096344 
z"/>
<path fill="#4E85BE" opacity="1.000000" stroke="none" 
	d="
M97.744942,309.896759 
	C96.851875,309.707947 96.016945,309.156403 95.091698,308.302063 
	C95.935280,308.510834 96.869179,309.022400 97.744942,309.896759 
z"/>
<path fill="#4E85BE" opacity="1.000000" stroke="none" 
	d="
M133.549896,348.673828 
	C132.923294,348.495728 132.455048,348.101746 131.936676,347.386780 
	C132.493790,347.529816 133.101013,347.993896 133.549896,348.673828 
z"/>
<path fill="#4E85BE" opacity="1.000000" stroke="none" 
	d="
M131.691040,346.086853 
	C131.023605,345.940094 130.444351,345.424896 129.802338,344.620514 
	C130.419464,344.793671 131.099335,345.256012 131.691040,346.086853 
z"/>
<path fill="#4E85BE" opacity="1.000000" stroke="none" 
	d="
M72.319763,250.913467 
	C73.006943,251.037689 73.627892,251.542114 74.355743,252.335449 
	C73.726273,252.180786 72.989914,251.737244 72.319763,250.913467 
z"/>
<path fill="#4E85BE" opacity="1.000000" stroke="none" 
	d="
M81.279259,259.952515 
	C81.919876,260.121033 82.497490,260.653046 83.138855,261.479980 
	C82.540489,261.288574 81.878365,260.802307 81.279259,259.952515 
z"/>
<path fill="#4E85BE" opacity="1.000000" stroke="none" 
	d="
M113.667496,294.213684 
	C114.301918,294.403564 114.717461,294.779022 115.182709,295.441711 
	C114.637817,295.285706 114.043221,294.842529 113.667496,294.213684 
z"/>
<path fill="#4E85BE" opacity="1.000000" stroke="none" 
	d="
M71.781075,282.992249 
	C71.111610,282.866150 70.500587,282.374451 69.822495,281.591217 
	C70.450119,281.741974 71.144814,282.184296 71.781075,282.992249 
z"/>
<path fill="#4E85BE" opacity="1.000000" stroke="none" 
	d="
M136.233322,317.986694 
	C136.896133,318.147736 137.492111,318.671570 138.140549,319.496552 
	C137.517502,319.314972 136.841995,318.832245 136.233322,317.986694 
z"/>
<path fill="#4E85BE" opacity="1.000000" stroke="none" 
	d="
M74.754486,285.878540 
	C74.076340,285.785004 73.456985,285.325287 72.727921,284.582092 
	C73.349892,284.703217 74.081589,285.107758 74.754486,285.878540 
z"/>
<path fill="#4E85BE" opacity="1.000000" stroke="none" 
	d="
M128.297165,309.924164 
	C128.969818,310.052185 129.558670,310.549469 130.215286,311.330811 
	C129.593155,311.174408 128.903259,310.733948 128.297165,309.924164 
z"/>
<path fill="#4E85BE" opacity="1.000000" stroke="none" 
	d="
M79.652336,291.117920 
	C78.976990,290.962524 78.408150,290.439270 77.785172,289.626404 
	C78.406960,289.807922 79.082901,290.278992 79.652336,291.117920 
z"/>
<path fill="#A2975A" opacity="1.000000" stroke="none" 
	d="
M317.955139,158.524551 
	C311.178284,158.649323 304.401489,158.875320 297.624512,158.881866 
	C262.749329,158.915558 227.874084,158.892914 192.254150,158.627716 
	C189.685211,158.211929 187.860962,158.058380 186.036713,157.904831 
	C186.029648,157.206970 186.022568,156.509125 186.214325,155.387787 
	C186.690399,154.877502 186.889587,154.702103 187.476562,154.388962 
	C231.248779,154.309067 274.555176,154.274643 317.861542,154.267502 
	C319.005585,154.267319 320.149689,154.563721 321.172241,154.751984 
	C320.874329,154.834442 320.703094,154.900208 320.381653,155.220795 
	C320.138550,156.025955 320.050903,156.589752 319.630035,157.170502 
	C318.849579,157.633133 318.402344,158.078842 317.955139,158.524551 
z"/>
<path fill="#B0A777" opacity="1.000000" stroke="none" 
	d="
M261.199677,76.000305 
	C261.615082,72.185745 262.030487,68.371185 262.445923,64.556625 
	C262.690704,64.516792 262.935516,64.476959 263.180298,64.437126 
	C263.358337,65.057396 263.702209,65.681114 263.689362,66.297409 
	C263.513672,74.745872 263.112000,83.195419 263.212311,91.639397 
	C263.234711,93.521759 264.979492,95.383659 265.975342,97.624855 
	C265.608246,98.001160 265.196991,98.007576 264.480957,98.018066 
	C263.137848,96.947517 262.099487,95.872887 261.312500,94.109741 
	C261.424225,89.603813 261.284576,85.786400 261.169861,81.543900 
	C261.196442,79.412643 261.198059,77.706474 261.199677,76.000305 
z"/>
<path fill="#C4BD9B" opacity="1.000000" stroke="none" 
	d="
M172.746536,159.221527 
	C171.334061,159.969772 169.510483,160.891785 167.586761,161.211761 
	C163.614716,161.872452 159.589310,162.212250 155.297302,162.443878 
	C160.769196,161.176743 166.529648,160.149734 172.746536,159.221527 
z"/>
<path fill="#C4BD9B" opacity="1.000000" stroke="none" 
	d="
M130.062164,167.521912 
	C129.193451,167.800247 128.516754,167.827438 127.504547,167.828308 
	C126.820679,163.494629 129.714066,162.975403 133.319702,162.840942 
	C133.775177,163.341934 133.860153,163.857529 133.959213,164.765350 
	C132.733597,165.861984 131.493896,166.566376 130.062164,167.521912 
z"/>
<path fill="#C4BD9B" opacity="1.000000" stroke="none" 
	d="
M150.766357,162.203842 
	C148.351532,163.163910 145.507996,164.027863 142.252701,164.819305 
	C144.673187,163.867111 147.505417,162.987427 150.766357,162.203842 
z"/>
<path fill="#CCC6A7" opacity="1.000000" stroke="none" 
	d="
M187.010727,154.438095 
	C186.889587,154.702103 186.690399,154.877502 186.223114,155.038910 
	C182.512527,153.048538 182.512527,153.048538 187.581177,148.986420 
	C187.906631,148.906693 188.122360,149.122375 188.065567,149.568008 
	C187.676102,151.488464 187.343414,152.963272 187.010727,154.438095 
z"/>
<path fill="#C4BD9B" opacity="1.000000" stroke="none" 
	d="
M185.647339,157.943268 
	C187.860962,158.058380 189.685211,158.211929 191.790009,158.630142 
	C188.608536,159.231613 185.146515,159.568405 181.256378,159.805573 
	C182.304810,159.131210 183.781372,158.556458 185.647339,157.943268 
z"/>
<path fill="#C4BD9B" opacity="1.000000" stroke="none" 
	d="
M134.184174,162.767395 
	C134.398041,162.179886 134.933243,161.643234 135.783173,161.121185 
	C135.567123,161.696609 135.036316,162.257416 134.184174,162.767395 
z"/>
<path fill="#CDC8AB" opacity="1.000000" stroke="none" 
	d="
M207.186554,107.395157 
	C207.473923,106.829292 207.959106,106.451126 208.773285,106.082581 
	C208.529633,106.589081 207.956985,107.085968 207.186554,107.395157 
z"/>
<path fill="#ADA472" opacity="1.000000" stroke="none" 
	d="
M191.005478,175.862915 
	C232.164352,175.862961 272.828308,175.547943 313.481598,176.066605 
	C324.820068,176.211258 336.134033,178.769119 347.446167,180.315613 
	C354.824951,181.324387 362.153259,182.782257 369.556366,183.502472 
	C373.762146,183.911621 374.866425,186.098679 374.920624,189.652328 
	C374.951111,191.651566 374.733917,193.688995 375.062286,195.636017 
	C375.250336,196.750946 376.334686,198.629333 376.969849,198.610657 
	C382.433258,198.449982 381.992706,202.052017 381.967926,205.689880 
	C381.897308,216.068039 382.719299,215.093277 372.528748,215.093246 
	C290.042450,215.093033 207.556183,215.093628 125.069893,215.092163 
	C118.014023,215.092026 118.012947,215.085907 118.006195,207.862564 
	C118.004486,206.029587 117.659325,204.098999 118.130623,202.395508 
	C118.486633,201.108765 119.835136,199.210754 120.840240,199.147522 
	C124.576393,198.912445 125.247383,196.823959 125.033432,193.778595 
	C124.998497,193.281204 125.029259,192.779114 125.031120,192.279205 
	C125.063751,183.515945 125.097191,183.813492 133.807831,182.835770 
	C141.691742,181.950836 149.457626,180.034500 157.337387,179.087570 
	C168.363693,177.762497 179.447388,176.914932 191.005478,175.862915 
M140.678909,199.683319 
	C136.937698,206.743225 138.682846,209.914719 146.340958,209.917404 
	C170.337906,209.925858 194.334839,209.921005 218.331787,209.921234 
	C263.326050,209.921646 308.320343,209.927490 353.314606,209.915558 
	C359.057861,209.914047 361.200012,207.235077 359.419067,202.212830 
	C358.928864,200.830490 357.942444,199.624100 356.952087,197.482681 
	C355.007782,196.986526 353.063965,196.058746 351.119110,196.056610 
	C283.036865,195.981857 214.954575,195.994125 146.872284,195.995132 
	C145.707138,195.995163 144.333832,195.625900 143.431808,196.116669 
	C142.402512,196.676697 141.793015,198.008331 140.678909,199.683319 
z"/>
<path fill="#E0DCCA" opacity="1.000000" stroke="none" 
	d="
M322.078430,170.844147 
	C324.296692,171.073914 326.654114,171.602249 329.191711,172.444168 
	C326.987152,172.219406 324.602356,171.681061 322.078430,170.844147 
z"/>
<path fill="#E0DCCA" opacity="1.000000" stroke="none" 
	d="
M341.049377,173.726913 
	C342.808807,173.774399 344.677460,174.121292 346.770447,174.743042 
	C345.049408,174.687363 343.103973,174.356842 341.049377,173.726913 
z"/>
<path fill="#E0DCCA" opacity="1.000000" stroke="none" 
	d="
M151.941498,175.758911 
	C153.162582,174.873276 154.764832,174.055481 156.714600,173.327469 
	C155.482300,174.220428 153.902481,175.023590 151.941498,175.758911 
z"/>
<path fill="#E0DCCA" opacity="1.000000" stroke="none" 
	d="
M170.978668,172.809479 
	C171.511871,172.168976 172.423233,171.605057 173.682220,171.092560 
	C173.138840,171.724670 172.247818,172.305359 170.978668,172.809479 
z"/>
<path fill="#E0DCCA" opacity="1.000000" stroke="none" 
	d="
M136.002151,177.829895 
	C136.535004,177.200363 137.441269,176.642624 138.693832,176.147217 
	C138.151932,176.773605 137.263733,177.337646 136.002151,177.829895 
z"/>
<path fill="#E0DCCA" opacity="1.000000" stroke="none" 
	d="
M360.030029,176.598541 
	C360.653473,176.595718 361.359833,176.904266 362.205750,177.498154 
	C361.601166,177.492294 360.857056,177.201080 360.030029,176.598541 
z"/>
<path fill="#E0DCCA" opacity="1.000000" stroke="none" 
	d="
M163.151794,173.229584 
	C163.564697,172.837494 164.129166,172.674026 164.860870,172.700531 
	C164.453186,173.079727 163.878265,173.268967 163.151794,173.229584 
z"/>
<path fill="#246AB0" opacity="1.000000" stroke="none" 
	d="
M221.984268,337.064331 
	C252.653061,337.085144 283.321869,337.105988 314.537109,337.589020 
	C315.402283,341.654816 315.915283,345.253998 315.997040,348.862976 
	C316.143799,355.339996 316.036102,355.329102 309.919342,355.063416 
	C308.424805,354.998505 306.925049,355.052460 305.427704,355.051025 
	C268.327148,355.015808 231.226578,354.980438 194.126007,354.945160 
	C194.084869,319.959595 194.043732,284.974060 194.536667,249.511017 
	C233.384232,249.030548 271.697723,249.027557 310.009033,249.489044 
	C310.006012,251.780563 310.018463,253.607742 310.002075,255.434647 
	C309.926331,263.874542 310.913818,262.986115 302.656555,262.994995 
	C277.243896,263.022247 251.830582,262.930939 226.419601,263.138763 
	C224.273376,263.156311 222.142593,265.061035 219.841980,266.430481 
	C219.228378,273.977203 218.570770,281.178741 218.441742,288.389740 
	C218.398224,290.821808 219.608902,293.365326 223.115021,293.439606 
	C224.869843,294.225922 226.538101,294.946991 228.211502,294.959137 
	C241.199738,295.053589 254.188965,295.011292 267.177887,295.011292 
	C281.952820,295.011292 281.952820,295.011292 281.539612,309.998230 
	C262.318176,310.010193 243.564072,310.149170 224.814865,309.907440 
	C220.565903,309.852661 218.397537,311.447357 218.222565,315.319489 
	C217.938217,321.611572 217.954666,327.930054 218.190475,334.224457 
	C218.256332,335.982239 218.573273,339.020172 221.984268,337.064331 
z"/>
<path fill="#5287BF" opacity="1.000000" stroke="none" 
	d="
M194.080276,355.347961 
	C231.226578,354.980438 268.327148,355.015808 305.427704,355.051025 
	C306.925049,355.052460 308.424805,354.998505 309.919342,355.063416 
	C316.036102,355.329102 316.143799,355.339996 315.997040,348.862976 
	C315.915283,345.253998 315.402283,341.654816 314.993286,337.665771 
	C315.981506,338.267365 317.900543,339.183502 317.990906,340.253967 
	C318.353516,344.550842 318.028687,348.900085 318.192993,353.221039 
	C318.328857,356.793854 316.490479,357.910370 313.309937,357.887604 
	C307.818146,357.848236 302.325928,357.867401 296.833893,357.867218 
	C264.547302,357.866211 232.260574,357.903961 199.974518,357.776093 
	C197.991882,357.768280 196.014420,356.456085 194.080276,355.347961 
z"/>
<path fill="#1062AD" opacity="1.000000" stroke="none" 
	d="
M220.004623,266.089020 
	C222.142593,265.061035 224.273376,263.156311 226.419601,263.138763 
	C251.830582,262.930939 277.243896,263.022247 302.656555,262.994995 
	C310.913818,262.986115 309.926331,263.874542 310.002075,255.434647 
	C310.018463,253.607742 310.006012,251.780563 310.393677,249.466431 
	C311.552338,248.961090 312.324188,248.942841 313.096008,248.924606 
	C313.161041,253.070328 312.987457,257.237457 313.356995,261.355835 
	C313.740479,265.628906 312.011749,266.632660 307.971649,266.611969 
	C280.086426,266.468964 252.200043,266.553497 223.471161,266.396088 
	C221.753723,266.181213 220.879181,266.135101 220.004623,266.089020 
z"/>
<path fill="#5287BF" opacity="1.000000" stroke="none" 
	d="
M313.038269,248.507019 
	C312.324188,248.942841 311.552338,248.961090 310.395844,249.001953 
	C271.697723,249.027557 233.384232,249.030548 194.617264,249.053131 
	C195.360703,248.349350 196.555649,246.997574 197.754822,246.993820 
	C235.161758,246.876862 272.569122,246.882080 309.976379,246.936279 
	C310.978302,246.937729 311.979126,247.688232 313.038269,248.507019 
z"/>
<path fill="#5287BF" opacity="1.000000" stroke="none" 
	d="
M221.826233,336.707153 
	C218.573273,339.020172 218.256332,335.982239 218.190475,334.224457 
	C217.954666,327.930054 217.938217,321.611572 218.222565,315.319489 
	C218.397537,311.447357 220.565903,309.852661 224.814865,309.907440 
	C243.564072,310.149170 262.318176,310.010193 281.938354,310.022583 
	C283.338898,310.011780 283.871582,309.987488 284.404266,309.963135 
	C282.851898,310.611755 281.303619,311.812927 279.746521,311.824432 
	C261.988892,311.955963 244.229889,311.893127 226.471268,311.911621 
	C220.269180,311.918091 220.036240,312.180603 220.014023,318.389191 
	C219.999176,322.538361 219.846451,326.697296 220.087906,330.832428 
	C220.196716,332.696045 221.116409,334.512268 221.826233,336.707153 
z"/>
<path fill="#5287BF" opacity="1.000000" stroke="none" 
	d="
M219.841980,266.430481 
	C220.879181,266.135101 221.753723,266.181213 223.034393,266.409058 
	C220.736557,268.408691 219.655182,270.830902 219.943756,274.170532 
	C220.243515,277.639496 220.287994,281.182098 219.944031,284.642761 
	C219.455887,289.554230 221.587448,291.107178 226.237411,291.071869 
	C243.710724,290.939056 261.185699,291.008423 278.659973,291.043243 
	C280.290955,291.046509 281.921356,291.340271 283.412903,292.123077 
	C263.192780,292.846649 243.111801,292.946320 223.030838,293.045959 
	C219.608902,293.365326 218.398224,290.821808 218.441742,288.389740 
	C218.570770,281.178741 219.228378,273.977203 219.841980,266.430481 
z"/>
<path fill="#085CAA" opacity="1.000000" stroke="none" 
	d="
M223.115021,293.439636 
	C243.111801,292.946320 263.192780,292.846649 283.596466,292.510620 
	C284.106934,297.864105 284.294678,303.453888 284.443359,309.503418 
	C283.871582,309.987488 283.338898,310.011780 282.407471,310.011719 
	C281.952820,295.011292 281.952820,295.011292 267.177887,295.011292 
	C254.188965,295.011292 241.199738,295.053589 228.211502,294.959137 
	C226.538101,294.946991 224.869843,294.225922 223.115021,293.439636 
z"/>
<path fill="#F8F7F3" opacity="1.000000" stroke="none" 
	d="
M191.191772,162.035049 
	C188.836182,162.035034 186.949707,162.035034 185.063232,162.035034 
	C185.067184,161.757004 185.071152,161.478958 185.075119,161.200928 
	C229.295074,161.200928 273.515045,161.200928 317.735016,161.200928 
	C317.736633,161.478973 317.738281,161.757019 317.739929,162.035065 
	C275.713593,162.035065 233.687241,162.035065 191.191772,162.035049 
z"/>
<path fill="#ABA16E" opacity="1.000000" stroke="none" 
	d="
M319.963257,157.153564 
	C320.050903,156.589752 320.138550,156.025955 320.663879,155.484726 
	C323.162445,156.175888 325.223389,156.844452 327.590363,157.553101 
	C328.504791,157.562317 329.113129,157.531448 329.721497,157.500595 
	C330.325256,158.066559 330.929047,158.632523 331.532837,159.198456 
	C330.880737,159.492737 330.228638,159.787018 329.210236,160.169312 
	C328.434723,160.222916 328.025574,160.188522 327.148743,159.886246 
	C325.788513,159.717682 324.895905,159.816986 324.003326,159.916290 
	C322.991150,159.868591 321.978943,159.820892 320.523743,159.408569 
	C320.041565,158.413818 320.002411,157.783691 319.963257,157.153564 
z"/>
<path fill="#C4BD9B" opacity="1.000000" stroke="none" 
	d="
M370.217773,168.200912 
	C370.787415,167.364227 371.570587,166.809433 372.617004,166.128677 
	C373.099976,166.800232 373.319763,167.597733 373.539581,168.395233 
	C372.503479,168.424423 371.467377,168.453598 370.217773,168.200912 
z"/>
<path fill="#C4BD9B" opacity="1.000000" stroke="none" 
	d="
M319.630035,157.170502 
	C320.002411,157.783691 320.041565,158.413818 320.148315,159.348969 
	C319.516327,159.458084 318.816711,159.262161 318.036133,158.795380 
	C318.402344,158.078842 318.849579,157.633133 319.630035,157.170502 
z"/>
<path fill="#C4BD9B" opacity="1.000000" stroke="none" 
	d="
M324.168182,160.175720 
	C324.895905,159.816986 325.788513,159.717682 326.839844,159.890472 
	C326.110046,160.253418 325.221558,160.344284 324.168182,160.175720 
z"/>
<path fill="#E4E1D1" opacity="1.000000" stroke="none" 
	d="
M261.144928,81.968994 
	C261.284576,85.786400 261.424225,89.603813 261.328613,93.754929 
	C258.077179,93.996490 255.061035,93.904350 252.044891,93.812210 
	C252.132233,93.123634 252.219559,92.435059 252.306885,91.746483 
	C253.560165,92.101234 254.828186,92.790115 256.063385,92.735588 
	C258.123840,92.644600 260.133972,92.065285 257.530518,89.165115 
	C257.458832,86.857277 257.276184,85.040565 257.103485,82.885208 
	C258.457245,82.354027 259.801086,82.161507 261.144928,81.968994 
z"/>
<path fill="#F0EFE6" opacity="1.000000" stroke="none" 
	d="
M261.169861,81.543900 
	C259.801086,82.161507 258.457245,82.354027 256.992004,83.107788 
	C256.645416,83.947205 256.353882,84.087868 255.996002,84.091042 
	C255.389297,83.224983 254.917206,82.201515 254.139023,81.535942 
	C253.316406,80.832375 252.202225,80.469688 251.215408,79.958099 
	C251.992493,78.856506 252.769592,77.754921 254.195175,76.416794 
	C255.965591,76.166962 257.087524,76.153671 258.209442,76.140381 
	C258.954865,76.101746 259.700317,76.063110 260.822693,76.012390 
	C261.198059,77.706474 261.196442,79.412643 261.169861,81.543900 
z"/>
<path fill="#ADA472" opacity="1.000000" stroke="none" 
	d="
M258.175293,75.684570 
	C257.087524,76.153671 255.965591,76.166962 254.424896,76.172546 
	C254.398560,73.052841 252.572678,69.182304 257.750000,66.945068 
	C257.893433,69.982605 258.017273,72.605682 258.175293,75.684570 
z"/>
<path fill="#A2975A" opacity="1.000000" stroke="none" 
	d="
M255.900482,84.378174 
	C256.353882,84.087868 256.645416,83.947205 256.982086,83.446449 
	C257.276184,85.040565 257.458832,86.857277 257.346405,88.911255 
	C256.635895,87.654121 256.220428,86.159714 255.900482,84.378174 
z"/>
<path fill="#FEFEFD" opacity="1.000000" stroke="none" 
	d="
M187.476562,154.388962 
	C187.343414,152.963272 187.676102,151.488464 188.173431,149.675858 
	C193.839310,143.910446 199.759445,138.840179 204.756241,132.982269 
	C215.824326,120.006775 229.090912,109.831306 245.085968,104.562950 
	C251.995178,102.287231 260.441833,104.596054 268.182861,104.971466 
	C271.139648,105.114868 274.076233,105.675430 277.542877,106.398705 
	C278.762085,107.087433 279.460388,107.423347 280.158722,107.759262 
	C281.860901,108.130714 283.563110,108.502174 285.708008,109.311211 
	C288.113983,110.149544 290.077301,110.550301 292.040588,110.951057 
	C292.040588,110.951057 292.492218,111.008369 292.793701,111.377388 
	C296.730103,113.497711 300.365051,115.249016 304.000000,117.000320 
	C304.514374,117.253815 305.028778,117.507317 305.824402,117.700531 
	C306.286713,117.950836 306.467773,118.261421 306.872467,119.080048 
	C309.340363,121.097496 311.584656,122.606903 313.828918,124.116318 
	C315.427887,125.579941 317.026886,127.043564 318.840149,129.101700 
	C319.691681,130.138275 320.328979,130.580338 320.966248,131.022385 
	C321.411163,131.317917 321.856049,131.613434 322.540253,132.027130 
	C331.419861,140.556564 340.060181,148.967804 348.751892,157.897018 
	C348.202271,158.937012 347.601227,159.459045 347.000183,159.981079 
	C345.576904,159.686249 344.153625,159.391418 342.298370,158.680939 
	C339.245636,157.823746 336.624847,157.382202 334.004089,156.940643 
	C332.939026,156.863998 331.873932,156.787338 330.320557,156.318359 
	C328.152008,155.385345 326.471710,154.844666 324.354004,154.259460 
	C323.042267,154.383881 322.168030,154.552841 321.293762,154.721802 
	C320.149689,154.563721 319.005585,154.267319 317.861542,154.267502 
	C274.555176,154.274643 231.248779,154.309067 187.476562,154.388962 
z"/>
<path fill="#E4E1D1" opacity="1.000000" stroke="none" 
	d="
M303.971863,116.633614 
	C300.365051,115.249016 296.730103,113.497711 293.019653,111.404724 
	C296.353943,113.340324 301.781586,111.352432 303.971863,116.633614 
z"/>
<path fill="#E4E1D1" opacity="1.000000" stroke="none" 
	d="
M291.982056,110.618217 
	C290.077301,110.550301 288.113983,110.149544 286.076355,109.373230 
	C287.975830,109.426903 289.949677,109.856140 291.982056,110.618217 
z"/>
<path fill="#E4E1D1" opacity="1.000000" stroke="none" 
	d="
M280.067932,107.459137 
	C279.460388,107.423347 278.762085,107.087433 277.981140,106.438660 
	C278.591370,106.470215 279.284241,106.814613 280.067932,107.459137 
z"/>
<path fill="#E4E1D1" opacity="1.000000" stroke="none" 
	d="
M347.213470,160.261505 
	C347.601227,159.459045 348.202271,158.937012 348.972534,158.157074 
	C350.639343,158.892059 352.136932,159.884964 353.634491,160.877853 
	C353.445129,161.283279 353.255768,161.688690 353.066406,162.094116 
	C351.186523,161.576736 349.306641,161.059341 347.213470,160.261505 
z"/>
<path fill="#E4E1D1" opacity="1.000000" stroke="none" 
	d="
M334.232758,157.232758 
	C336.624847,157.382202 339.245636,157.823746 341.937012,158.627594 
	C339.492249,158.501556 336.976837,158.013229 334.232758,157.232758 
z"/>
<path fill="#E4E1D1" opacity="1.000000" stroke="none" 
	d="
M324.791443,154.303986 
	C326.471710,154.844666 328.152008,155.385345 329.928894,156.235580 
	C329.987976,156.709579 329.950439,156.874039 329.817200,157.269531 
	C329.113129,157.531448 328.504791,157.562317 327.453064,157.297424 
	C326.270294,156.102448 325.530853,155.203217 324.791443,154.303986 
z"/>
<path fill="#E4E1D1" opacity="1.000000" stroke="none" 
	d="
M313.739075,123.791771 
	C311.584656,122.606903 309.340363,121.097496 307.101624,119.225845 
	C309.287872,120.398155 311.468567,121.932693 313.739075,123.791771 
z"/>
<path fill="#E4E1D1" opacity="1.000000" stroke="none" 
	d="
M320.948517,130.688080 
	C320.328979,130.580338 319.691681,130.138275 319.004639,129.383850 
	C319.613525,129.498917 320.272156,129.926346 320.948517,130.688080 
z"/>
<path fill="#C4BD9B" opacity="1.000000" stroke="none" 
	d="
M324.354004,154.259460 
	C325.530853,155.203217 326.270294,156.102448 327.147034,157.257355 
	C325.223389,156.844452 323.162445,156.175888 320.819275,155.243378 
	C320.703094,154.900208 320.874329,154.834442 321.172241,154.751968 
	C322.168030,154.552841 323.042267,154.383881 324.354004,154.259460 
z"/>
<path fill="#F0EFE6" opacity="1.000000" stroke="none" 
	d="
M357.183685,198.336975 
	C357.942444,199.624100 358.928864,200.830490 359.419067,202.212830 
	C361.200012,207.235077 359.057861,209.914047 353.314606,209.915558 
	C308.320343,209.927490 263.326050,209.921646 218.331787,209.921234 
	C194.334839,209.921005 170.337906,209.925858 146.340958,209.917404 
	C138.682846,209.914719 136.937698,206.743225 141.307587,199.377808 
	C200.547363,199.065323 259.158508,199.100418 317.769501,199.019089 
	C330.907867,199.000854 344.045624,198.575119 357.183685,198.336975 
z"/>
<path fill="#A1965A" opacity="1.000000" stroke="none" 
	d="
M357.067871,197.909821 
	C344.045624,198.575119 330.907867,199.000854 317.769501,199.019089 
	C259.158508,199.100418 200.547363,199.065323 141.468689,199.038483 
	C141.793015,198.008331 142.402512,196.676697 143.431808,196.116669 
	C144.333832,195.625900 145.707138,195.995163 146.872284,195.995132 
	C214.954575,195.994125 283.036865,195.981857 351.119110,196.056610 
	C353.063965,196.058746 355.007782,196.986526 357.067871,197.909821 
z"/>
</svg>