<svg version="1.1" id="Layer_1" xmlns="http://www.w3.org/2000/svg" xmlns:xlink="http://www.w3.org/1999/xlink" x="0px" y="0px"
	 width="100%" viewBox="0 0 204 192" enable-background="new 0 0 204 192" xml:space="preserve">
<path fill="#FEFEFE" opacity="1.000000" stroke="none" 
	d="
M123.000000,193.000000 
	C82.025581,193.000000 41.551163,193.000000 1.038372,193.000000 
	C1.038372,129.066025 1.038372,65.132019 1.038372,1.099008 
	C68.890915,1.099008 136.782013,1.099008 204.836563,1.099008 
	C204.836563,64.999664 204.836563,128.999802 204.836563,193.000000 
	C177.798965,193.000000 150.649490,193.000000 123.000000,193.000000 
M134.989990,55.555748 
	C135.132690,55.813526 135.275375,56.071304 135.418060,56.329082 
	C135.298935,55.873192 135.179794,55.417301 135.016602,54.221916 
	C133.863480,52.706108 132.710358,51.190300 131.557236,49.674492 
	C130.993713,50.252373 130.430176,50.830254 129.866638,51.408134 
	C131.546951,52.635784 133.227264,53.863438 134.989990,55.555748 
M137.186829,61.038265 
	C136.453827,61.018040 135.720825,60.997810 134.637421,60.484463 
	C134.062820,60.335239 133.488220,60.186016 132.351700,60.309906 
	C131.568405,60.539528 130.785126,60.769150 129.553680,60.258949 
	C118.610115,60.159142 107.665123,60.134968 96.723549,59.929199 
	C90.816772,59.818115 84.915840,59.396496 78.813240,58.416252 
	C87.293167,48.857426 94.917236,37.849617 109.065605,40.047066 
	C108.747200,35.305481 108.438171,30.703661 108.815224,25.876371 
	C110.913094,24.806204 112.828697,23.164835 109.196022,22.179371 
	C105.922249,21.291271 105.014015,19.422596 104.653923,16.634743 
	C104.217926,13.259248 103.786888,9.883111 103.353699,6.507252 
	C103.034935,6.536597 102.716179,6.565941 102.397415,6.595286 
	C101.983047,10.453708 101.568680,14.312130 100.912590,18.841080 
	C99.017105,20.442152 97.121628,22.043224 95.217499,23.651602 
	C100.052734,30.681955 97.591934,38.075195 89.640907,40.316315 
	C82.284271,42.389900 76.208267,46.451374 70.821381,51.871376 
	C66.492767,56.226604 61.656567,60.077351 57.200722,64.014877 
	C57.333118,64.042938 58.124763,64.210739 58.949615,64.895325 
	C58.959667,65.241089 58.969719,65.586845 58.247372,66.075165 
	C56.947948,66.582008 55.648525,67.088852 54.349102,67.595695 
	C54.473564,68.043907 54.598022,68.492119 54.722481,68.940331 
	C56.131676,68.865723 57.565716,68.934471 58.946384,68.695236 
	C83.880447,64.374794 108.954041,65.954781 134.820282,66.980476 
	C137.207352,67.377022 139.594437,67.773567 141.988159,68.706726 
	C141.984085,69.064354 141.980011,69.421982 141.203094,69.839157 
	C134.798080,69.223137 128.365570,67.886230 121.993347,68.129440 
	C104.517632,68.796425 86.952812,65.926735 69.535179,69.691040 
	C64.710747,70.733704 59.600929,70.455841 54.996838,70.759148 
	C53.642757,75.343987 52.575596,78.957329 51.346130,83.120224 
	C55.053596,83.120224 57.515144,83.120224 60.910160,83.255798 
	C88.948105,83.210670 116.986053,83.165535 145.934708,83.275246 
	C148.075424,83.412544 150.216125,83.549843 152.719589,83.851349 
	C152.984161,83.310158 153.248718,82.768959 153.338898,81.395088 
	C152.227264,77.920395 151.115616,74.445702 150.006012,70.311127 
	C150.002762,69.871017 149.999512,69.430916 149.768845,68.349968 
	C148.810181,67.236809 147.851532,66.123642 147.528976,64.920998 
	C149.746414,61.676521 146.096725,62.652424 145.161743,61.792728 
	C143.946075,60.674919 142.402069,59.914165 140.361740,59.074150 
	C139.547821,59.734276 138.733887,60.394402 137.186829,61.038265 
M116.109009,118.197495 
	C116.053398,116.791962 115.997795,115.386436 116.016014,113.491287 
	C116.016014,113.491287 115.789192,113.051147 115.340363,112.373299 
	C107.377220,112.373299 99.414070,112.373299 91.027115,112.373299 
	C91.027115,108.810341 91.027115,106.204330 91.947250,103.387047 
	C103.623718,103.387047 115.300186,103.387047 127.204567,103.387047 
	C127.048035,100.352531 126.937759,98.214584 126.416580,95.358101 
	C111.331703,95.358101 96.246826,95.358101 81.207794,95.358101 
	C81.207794,109.841057 81.207794,123.747253 81.207794,137.663345 
	C97.241989,137.663345 112.941467,137.663345 128.523987,137.663345 
	C128.523987,134.873413 128.523987,132.486984 128.523987,129.518036 
	C115.895584,129.518036 103.668335,129.518036 91.476929,129.518036 
	C91.476929,126.319794 91.476929,123.715919 91.476929,120.114632 
	C99.517685,120.114632 107.275383,120.114632 115.621498,120.101318 
	C115.726028,119.742981 115.830566,119.384644 116.109009,118.197495 
M22.068602,95.998558 
	C22.022984,109.676346 21.977365,123.354134 22.320847,137.805145 
	C25.396996,137.805145 28.473145,137.805145 32.102379,137.805145 
	C32.102379,127.776520 32.102379,118.276245 32.102379,107.850899 
	C40.172981,116.342743 48.009933,123.636230 54.655331,131.889175 
	C59.763996,138.233658 65.572548,138.957626 72.844437,137.532028 
	C72.844437,123.587997 72.844437,109.697487 72.844437,94.954819 
	C69.396378,95.345322 66.260994,95.700417 62.857540,96.951424 
	C62.877190,106.295029 62.896835,115.638641 62.239399,124.927620 
	C54.609039,117.086952 46.536961,109.618713 39.502625,101.275528 
	C34.762417,95.653320 29.532961,94.282333 22.068602,95.998558 
M161.498993,120.699654 
	C164.474396,121.002388 167.540253,120.956032 170.401917,121.697632 
	C173.854782,122.592422 174.399780,125.979279 171.438187,128.009445 
	C169.727219,129.182312 167.512878,129.930710 165.437042,130.205902 
	C157.871460,131.208954 150.520950,130.370911 143.504684,127.084137 
	C136.481659,123.794212 136.447449,123.867233 132.352859,131.518982 
	C146.320190,139.978958 161.037964,141.553482 176.299408,136.148285 
	C182.523956,133.943726 185.014709,129.076614 184.519775,123.280403 
	C184.045486,117.725731 180.997360,114.192299 174.040054,113.010765 
	C166.519180,111.733505 158.811188,111.587700 151.252777,110.483231 
	C149.072495,110.164642 147.126678,108.241432 145.073364,107.053902 
	C147.014343,105.754623 148.923035,104.402092 150.918427,103.192558 
	C151.433777,102.880165 152.222488,103.026665 152.883560,102.945457 
	C161.365433,101.903534 169.426819,103.352020 177.268143,107.405899 
	C179.183792,105.154053 180.977859,103.045128 183.227768,100.400337 
	C169.850647,93.466599 156.558456,92.103470 142.859863,96.757538 
	C136.301926,98.985588 133.560059,103.481781 134.103333,109.136673 
	C134.569946,113.993713 138.124771,117.562759 144.714996,118.817314 
	C149.927582,119.809616 155.276016,120.088158 161.498993,120.699654 
M120.248741,41.419830 
	C119.336777,46.357498 123.072807,44.966370 125.536728,45.306946 
	C123.951202,44.128178 122.365669,42.949413 120.248741,41.419830 
M116.683853,42.530869 
	C117.023384,41.981922 117.362915,41.432980 117.702438,40.884033 
	C117.427155,40.748505 117.151878,40.612976 116.876595,40.477448 
	C116.671196,41.015160 116.465790,41.552876 116.683853,42.530869 
M137.524155,57.625957 
	C137.469406,57.839283 137.414642,58.052608 137.359894,58.265934 
	C137.494888,58.128742 137.629883,57.991554 137.524155,57.625957 
M127.476265,48.377228 
	C127.531372,48.162163 127.586487,47.947098 127.641594,47.732033 
	C127.505623,47.870396 127.369652,48.008759 127.476265,48.377228 
z"/>
<path fill="#2A6EB2" opacity="1.000000" stroke="none" 
	d="
M161.031555,120.691666 
	C155.276016,120.088158 149.927582,119.809616 144.714996,118.817314 
	C138.124771,117.562759 134.569946,113.993713 134.103333,109.136673 
	C133.560059,103.481781 136.301926,98.985588 142.859863,96.757538 
	C156.558456,92.103470 169.850647,93.466599 183.227768,100.400337 
	C180.977859,103.045128 179.183792,105.154053 177.268143,107.405899 
	C169.426819,103.352020 161.365433,101.903534 152.883560,102.945457 
	C152.222488,103.026665 151.433777,102.880165 150.918427,103.192558 
	C148.923035,104.402092 147.014343,105.754623 145.073364,107.053894 
	C147.126678,108.241432 149.072495,110.164642 151.252777,110.483231 
	C158.811188,111.587700 166.519180,111.733505 174.040054,113.010765 
	C180.997360,114.192299 184.045486,117.725731 184.519775,123.280403 
	C185.014709,129.076614 182.523956,133.943726 176.299408,136.148285 
	C161.037964,141.553482 146.320190,139.978958 132.352859,131.518982 
	C136.447449,123.867233 136.481659,123.794212 143.504684,127.084137 
	C150.520950,130.370911 157.871460,131.208954 165.437042,130.205902 
	C167.512878,129.930710 169.727219,129.182312 171.438187,128.009445 
	C174.399780,125.979279 173.854782,122.592422 170.401917,121.697632 
	C167.540253,120.956032 164.474396,121.002388 161.031555,120.691666 
z"/>
<path fill="#296DB1" opacity="1.000000" stroke="none" 
	d="
M63.125607,96.055511 
	C66.260994,95.700417 69.396378,95.345322 72.844437,94.954819 
	C72.844437,109.697487 72.844437,123.587997 72.844437,137.532028 
	C65.572548,138.957626 59.763996,138.233658 54.655331,131.889175 
	C48.009933,123.636230 40.172981,116.342743 32.102379,107.850899 
	C32.102379,118.276245 32.102379,127.776520 32.102379,137.805145 
	C28.473145,137.805145 25.396996,137.805145 22.441921,137.136124 
	C22.677191,122.827431 22.791382,109.187759 22.905575,95.548088 
	C29.532961,94.282333 34.762417,95.653320 39.502625,101.275528 
	C46.536961,109.618713 54.609039,117.086952 62.900330,124.685547 
	C63.710106,119.351456 64.021965,114.257378 63.958210,109.168015 
	C63.903423,104.794395 63.419670,100.426140 63.125607,96.055511 
z"/>
<path fill="#2A6EB2" opacity="1.000000" stroke="none" 
	d="
M91.027115,103.598320 
	C91.027115,106.204330 91.027115,108.810341 91.027115,112.373299 
	C99.414070,112.373299 107.377220,112.373299 115.110046,112.730026 
	C107.666023,113.086754 100.452332,113.086754 93.238632,113.086754 
	C93.242851,113.384804 93.247063,113.682854 93.251282,113.980904 
	C100.814919,113.980904 108.378548,113.980904 115.942184,113.980904 
	C115.997795,115.386436 116.053398,116.791962 115.798546,118.720337 
	C115.249405,119.488220 115.097733,119.778702 115.033073,120.114632 
	C107.275383,120.114632 99.517685,120.114632 91.476929,120.114632 
	C91.476929,123.715919 91.476929,126.319794 91.476929,129.518036 
	C103.668335,129.518036 115.895584,129.518036 128.523987,129.518036 
	C128.523987,132.486984 128.523987,134.873413 128.523987,137.663345 
	C112.941467,137.663345 97.241989,137.663345 81.207794,137.663345 
	C81.207794,123.747253 81.207794,109.841057 81.207794,95.358101 
	C96.246826,95.358101 111.331703,95.358101 126.360992,96.003075 
	C126.063560,98.246689 125.821716,99.845322 125.497063,101.991371 
	C115.673698,101.991371 105.959618,101.912857 96.249107,102.063744 
	C94.500923,102.090904 92.767403,103.062668 91.027115,103.598320 
z"/>
<path fill="#ABA16F" opacity="1.000000" stroke="none" 
	d="
M152.356842,83.687141 
	C150.216125,83.549843 148.075424,83.412544 145.457306,82.773270 
	C144.930161,81.707664 144.880417,81.144043 144.786041,80.282196 
	C144.492050,79.004234 144.242706,78.024506 143.913162,76.873177 
	C143.561096,76.786919 143.289246,76.872261 142.552338,77.030670 
	C115.385628,77.054726 88.683983,77.005730 61.891449,76.792671 
	C61.532322,76.755600 61.264076,76.882591 60.757477,77.244873 
	C60.371559,78.578667 60.224003,79.677162 60.059158,81.166138 
	C60.020145,82.077827 59.998421,82.599022 59.976696,83.120224 
	C57.515144,83.120224 55.053596,83.120224 51.346130,83.120224 
	C52.575596,78.957329 53.642757,75.343987 54.996838,70.759148 
	C59.600929,70.455841 64.710747,70.733704 69.535179,69.691040 
	C86.952812,65.926735 104.517632,68.796425 121.993347,68.129440 
	C128.365570,67.886230 134.798080,69.223137 141.983337,69.905426 
	C145.177032,70.304794 147.590515,70.637901 150.003983,70.971008 
	C151.115616,74.445702 152.227264,77.920395 153.064316,81.881912 
	C152.645447,82.808205 152.501144,83.247673 152.356842,83.687141 
z"/>
<path fill="#ABA26F" opacity="1.000000" stroke="none" 
	d="
M58.916409,64.378548 
	C58.124763,64.210739 57.333118,64.042938 57.200722,64.014877 
	C61.656567,60.077351 66.492767,56.226604 70.821381,51.871376 
	C76.208267,46.451374 82.284271,42.389900 89.640907,40.316315 
	C97.591934,38.075195 100.052734,30.681955 95.217499,23.651602 
	C97.121628,22.043224 99.017105,20.442152 101.298477,18.770657 
	C101.829605,22.760567 101.974854,26.820904 102.095940,31.194691 
	C102.382568,32.005753 102.693359,32.503357 102.996689,33.378265 
	C103.403412,34.864834 103.817596,35.974098 104.231773,37.083363 
	C104.515320,36.961071 104.798859,36.838779 105.082405,36.716492 
	C104.687729,35.484955 104.293053,34.253418 104.167572,32.859779 
	C104.604889,32.109909 104.773018,31.522141 105.086159,30.632210 
	C106.197166,28.920647 107.163162,27.511246 108.129150,26.101843 
	C108.438171,30.703661 108.747200,35.305481 109.065605,40.047066 
	C94.917236,37.849617 87.293167,48.857426 78.903519,58.736359 
	C78.993790,59.056469 79.050247,59.031395 78.735786,58.978695 
	C78.278244,59.297070 78.135162,59.668144 77.996590,60.285412 
	C78.043419,60.857746 78.064270,61.185257 77.643532,61.648071 
	C71.121071,62.647518 65.018738,63.513035 58.916409,64.378548 
z"/>
<path fill="#ADA472" opacity="1.000000" stroke="none" 
	d="
M134.012497,66.871254 
	C108.954041,65.954781 83.880447,64.374794 58.946384,68.695236 
	C57.565716,68.934471 56.131676,68.865723 54.722481,68.940331 
	C54.598022,68.492119 54.473564,68.043907 54.349102,67.595695 
	C55.648525,67.088852 56.947948,66.582008 59.038509,66.050728 
	C65.834000,65.117546 71.838356,64.208794 78.227119,63.458450 
	C95.731926,63.600693 112.852318,63.584530 130.251465,63.705086 
	C131.686447,64.225418 132.842667,64.609024 133.996368,65.305786 
	C134.000061,66.036385 134.006287,66.453819 134.012497,66.871254 
z"/>
<path fill="#A2975D" opacity="1.000000" stroke="none" 
	d="
M60.443428,83.188011 
	C59.998421,82.599022 60.020145,82.077827 60.509033,81.286591 
	C87.957916,81.061752 114.939636,81.112953 141.921371,81.127861 
	C142.891037,81.128395 143.860886,80.771004 144.830658,80.580421 
	C144.880417,81.144043 144.930161,81.707664 145.001953,82.695847 
	C116.986053,83.165535 88.948105,83.210670 60.443428,83.188011 
z"/>
<path fill="#9B8F4C" opacity="1.000000" stroke="none" 
	d="
M78.063660,61.514133 
	C78.064270,61.185257 78.043419,60.857746 78.317856,60.233765 
	C78.773155,59.634418 78.911705,59.332905 79.050247,59.031395 
	C79.050247,59.031395 78.993790,59.056469 79.003029,59.085724 
	C84.915840,59.396496 90.816772,59.818115 96.723549,59.929199 
	C107.665123,60.134968 118.610115,60.159142 129.697952,60.762993 
	C129.842224,61.267033 129.954178,61.558411 129.495361,61.645828 
	C112.034897,61.799385 95.033234,61.865520 78.084305,61.830711 
	C78.137032,61.729763 78.063660,61.514133 78.063660,61.514133 
z"/>
<path fill="#CCC7AB" opacity="1.000000" stroke="none" 
	d="
M108.472183,25.989107 
	C107.163162,27.511246 106.197166,28.920647 104.733292,30.655914 
	C103.530304,30.948269 102.825211,30.914755 102.120102,30.881239 
	C101.974854,26.820904 101.829605,22.760567 101.419334,18.435390 
	C101.568680,14.312130 101.983047,10.453708 102.397415,6.595286 
	C102.716179,6.565941 103.034935,6.536597 103.353699,6.507252 
	C103.786888,9.883111 104.217926,13.259248 104.653923,16.634743 
	C105.014015,19.422596 105.922249,21.291271 109.196022,22.179371 
	C112.828697,23.164835 110.913094,24.806204 108.472183,25.989107 
z"/>
<path fill="#A69C65" opacity="1.000000" stroke="none" 
	d="
M134.416382,66.925865 
	C134.006287,66.453819 134.000061,66.036385 134.347809,65.301041 
	C135.167862,64.945892 135.633957,64.908661 136.464172,64.907898 
	C137.898819,64.626587 138.969330,64.308800 140.428253,64.026237 
	C142.842056,64.377808 144.867462,64.694145 146.892868,65.010483 
	C147.851532,66.123642 148.810181,67.236809 149.469299,68.677917 
	C146.773666,68.727272 144.377594,68.448692 141.981506,68.170105 
	C139.594437,67.773567 137.207352,67.377022 134.416382,66.925865 
z"/>
<path fill="#005AAA" opacity="1.000000" stroke="none" 
	d="
M91.487183,103.492683 
	C92.767403,103.062668 94.500923,102.090904 96.249107,102.063744 
	C105.959618,101.912857 115.673698,101.991371 125.497063,101.991371 
	C125.821716,99.845322 126.063560,98.246689 126.566437,96.362343 
	C126.937759,98.214584 127.048035,100.352531 127.204567,103.387047 
	C115.300186,103.387047 103.623718,103.387047 91.487183,103.492683 
z"/>
<path fill="#005AAA" opacity="1.000000" stroke="none" 
	d="
M22.487087,95.773323 
	C22.791382,109.187759 22.677191,122.827431 22.247372,136.749512 
	C21.977365,123.354134 22.022984,109.676346 22.487087,95.773323 
z"/>
<path fill="#EDEBE2" opacity="1.000000" stroke="none" 
	d="
M77.842712,63.300041 
	C71.838356,64.208794 65.834000,65.117546 59.404709,65.979446 
	C58.969719,65.586845 58.959667,65.241089 58.933014,64.636932 
	C65.018738,63.513035 71.121071,62.647518 77.643532,61.648071 
	C78.063660,61.514133 78.137032,61.729763 78.044495,62.173939 
	C77.915550,62.845425 77.879135,63.072735 77.842712,63.300041 
z"/>
<path fill="#005EAB" opacity="1.000000" stroke="none" 
	d="
M62.991573,96.503464 
	C63.419670,100.426140 63.903423,104.794395 63.958210,109.168015 
	C64.021965,114.257378 63.710106,119.351456 63.238869,124.712860 
	C62.896835,115.638641 62.877190,106.295029 62.991573,96.503464 
z"/>
<path fill="#D9D5C0" opacity="1.000000" stroke="none" 
	d="
M147.210922,64.965744 
	C144.867462,64.694145 142.842056,64.377808 140.422043,64.053406 
	C140.027435,64.045357 139.974838,64.062462 139.977814,63.729965 
	C139.973862,62.955482 139.966949,62.513496 140.237091,61.867455 
	C140.675919,60.775505 140.837646,59.887619 140.999390,58.999733 
	C142.402069,59.914165 143.946075,60.674919 145.161743,61.792728 
	C146.096725,62.652424 149.746414,61.676521 147.210922,64.965744 
z"/>
<path fill="#DBD8C4" opacity="1.000000" stroke="none" 
	d="
M136.100037,64.871429 
	C135.633957,64.908661 135.167862,64.945892 134.350342,64.987885 
	C132.842667,64.609024 131.686447,64.225418 130.251038,63.202164 
	C129.965973,62.227814 129.960068,61.893112 129.954178,61.558411 
	C129.954178,61.558411 129.842224,61.267033 129.922028,61.132904 
	C130.785126,60.769150 131.568405,60.539528 132.686981,60.489441 
	C133.432007,61.537216 133.841751,62.405457 134.663620,64.147026 
	C134.836060,62.461140 134.911942,61.719360 134.987823,60.977585 
	C135.720825,60.997810 136.453827,61.018040 137.578094,61.372128 
	C137.979294,62.142696 137.989243,62.579399 138.009857,63.238243 
	C138.020508,63.460377 138.063248,63.903423 137.776093,63.946404 
	C137.025955,64.283394 136.563004,64.577415 136.100037,64.871429 
z"/>
<path fill="#005AA9" opacity="1.000000" stroke="none" 
	d="
M115.979095,113.736099 
	C108.378548,113.980904 100.814919,113.980904 93.251282,113.980904 
	C93.247063,113.682854 93.242851,113.384804 93.238632,113.086754 
	C100.452332,113.086754 107.666023,113.086754 115.334457,113.068954 
	C115.789192,113.051147 116.016014,113.491287 115.979095,113.736099 
z"/>
<path fill="#FCFCFB" opacity="1.000000" stroke="none" 
	d="
M134.907578,55.091087 
	C133.227264,53.863438 131.546951,52.635784 129.866638,51.408134 
	C130.430176,50.830254 130.993713,50.252373 131.557236,49.674492 
	C132.710358,51.190300 133.863480,52.706108 134.998932,54.622398 
	C134.981262,55.022881 134.907578,55.091087 134.907578,55.091087 
z"/>
<path fill="#F6F6F1" opacity="1.000000" stroke="none" 
	d="
M141.984833,68.438416 
	C144.377594,68.448692 146.773666,68.727272 149.583008,68.998337 
	C149.999512,69.430916 150.002762,69.871017 150.005005,70.641068 
	C147.590515,70.637901 145.177032,70.304794 142.369751,69.875648 
	C141.980011,69.421982 141.984085,69.064354 141.984833,68.438416 
z"/>
<path fill="#FCFCFB" opacity="1.000000" stroke="none" 
	d="
M120.514442,41.595238 
	C122.365669,42.949413 123.951202,44.128178 125.536728,45.306946 
	C123.072807,44.966370 119.336777,46.357498 120.514442,41.595238 
z"/>
<path fill="#FCFCFB" opacity="1.000000" stroke="none" 
	d="
M137.999191,63.016102 
	C137.989243,62.579399 137.979294,62.142696 137.944656,61.380257 
	C138.733887,60.394402 139.547821,59.734276 140.680573,59.036942 
	C140.837646,59.887619 140.675919,60.775505 139.967392,61.922749 
	C138.946793,62.460106 138.472992,62.738102 137.999191,63.016102 
z"/>
<path fill="#FCFCFB" opacity="1.000000" stroke="none" 
	d="
M134.812622,60.731026 
	C134.911942,61.719360 134.836060,62.461140 134.663620,64.147026 
	C133.841751,62.405457 133.432007,61.537216 132.967957,60.352882 
	C133.488220,60.186016 134.062820,60.335239 134.812622,60.731026 
z"/>
<path fill="#FCFCFB" opacity="1.000000" stroke="none" 
	d="
M116.472122,42.310730 
	C116.465790,41.552876 116.671196,41.015160 116.876595,40.477448 
	C117.151878,40.612976 117.427155,40.748505 117.702438,40.884033 
	C117.362915,41.432980 117.023384,41.981922 116.472122,42.310730 
z"/>
<path fill="#F6F6F1" opacity="1.000000" stroke="none" 
	d="
M152.538208,83.769241 
	C152.501144,83.247673 152.645447,82.808205 153.151520,82.298248 
	C153.248718,82.768959 152.984161,83.310158 152.538208,83.769241 
z"/>
<path fill="#FCFCFB" opacity="1.000000" stroke="none" 
	d="
M137.644516,57.740158 
	C137.629883,57.991554 137.494888,58.128742 137.359894,58.265934 
	C137.414642,58.052608 137.469406,57.839283 137.644516,57.740158 
z"/>
<path fill="#FCFCFB" opacity="1.000000" stroke="none" 
	d="
M135.020966,54.992149 
	C135.179794,55.417301 135.298935,55.873192 135.418060,56.329082 
	C135.275375,56.071304 135.132690,55.813526 134.948792,55.323418 
	C134.907578,55.091087 134.981262,55.022881 135.020966,54.992149 
z"/>
<path fill="#FCFCFB" opacity="1.000000" stroke="none" 
	d="
M127.354973,48.262173 
	C127.369652,48.008759 127.505623,47.870396 127.641594,47.732033 
	C127.586487,47.947098 127.531372,48.162163 127.354973,48.262173 
z"/>
<path fill="#005AA9" opacity="1.000000" stroke="none" 
	d="
M115.327286,120.107971 
	C115.097733,119.778702 115.249405,119.488220 115.711594,119.134743 
	C115.830566,119.384644 115.726028,119.742981 115.327286,120.107971 
z"/>
<path fill="#F6F5EF" opacity="1.000000" stroke="none" 
	d="
M144.786026,80.282196 
	C143.860886,80.771004 142.891037,81.128395 141.921371,81.127861 
	C114.939636,81.112953 87.957916,81.061752 60.526321,80.896103 
	C60.224003,79.677162 60.371559,78.578667 61.005585,77.259186 
	C61.492046,77.038193 61.982334,76.956726 61.982334,76.956726 
	C88.683983,77.005730 115.385628,77.054726 142.794296,77.075096 
	C143.501312,77.046463 143.993362,77.044777 143.993362,77.044777 
	C144.242706,78.024506 144.492050,79.004234 144.786026,80.282196 
z"/>
<path fill="#9F9355" opacity="1.000000" stroke="none" 
	d="
M143.913162,76.873177 
	C143.993362,77.044777 143.501312,77.046463 143.259338,77.002029 
	C143.289246,76.872261 143.561096,76.786919 143.913162,76.873177 
z"/>
<path fill="#9F9355" opacity="1.000000" stroke="none" 
	d="
M61.891449,76.792664 
	C61.982334,76.956726 61.492046,77.038193 61.243938,77.023880 
	C61.264076,76.882591 61.532322,76.755600 61.891449,76.792664 
z"/>
<path fill="#B8B087" opacity="1.000000" stroke="none" 
	d="
M102.095947,31.194691 
	C102.825211,30.914755 103.530304,30.948269 104.588272,30.958078 
	C104.773018,31.522141 104.604889,32.109909 103.944092,32.867100 
	C103.451431,33.036526 103.004150,33.000969 103.004150,33.000969 
	C102.693359,32.503357 102.382568,32.005753 102.095947,31.194691 
z"/>
<path fill="#E3E0D1" opacity="1.000000" stroke="none" 
	d="
M102.996689,33.378269 
	C103.004150,33.000969 103.451431,33.036526 103.674904,33.029205 
	C104.293053,34.253418 104.687729,35.484955 105.082405,36.716492 
	C104.798859,36.838779 104.515320,36.961071 104.231773,37.083363 
	C103.817596,35.974098 103.403412,34.864834 102.996689,33.378269 
z"/>
<path fill="#FCFCFB" opacity="1.000000" stroke="none" 
	d="
M78.735786,58.978695 
	C78.911705,59.332905 78.773155,59.634418 78.313347,59.987572 
	C78.135162,59.668144 78.278244,59.297070 78.735786,58.978695 
z"/>
<path fill="#FCFCFA" opacity="1.000000" stroke="none" 
	d="
M129.495361,61.645828 
	C129.960068,61.893112 129.965973,62.227814 129.972290,63.065437 
	C112.852318,63.584530 95.731926,63.600693 78.227119,63.458450 
	C77.879135,63.072735 77.915550,62.845425 77.991760,62.274887 
	C95.033234,61.865520 112.034897,61.799385 129.495361,61.645828 
z"/>
<path fill="#F8F8F4" opacity="1.000000" stroke="none" 
	d="
M136.464172,64.907898 
	C136.563004,64.577415 137.025955,64.283394 138.093811,63.977364 
	C139.124069,63.997723 139.549454,64.030090 139.974838,64.062462 
	C139.974838,64.062462 140.027435,64.045357 140.033646,64.018188 
	C138.969330,64.308800 137.898819,64.626587 136.464172,64.907898 
z"/>
<path fill="#C7C0A0" opacity="1.000000" stroke="none" 
	d="
M139.977814,63.729965 
	C139.549454,64.030090 139.124069,63.997723 138.380966,63.934387 
	C138.063248,63.903423 138.020508,63.460377 138.009857,63.238235 
	C138.472992,62.738102 138.946793,62.460106 139.690308,62.126808 
	C139.966949,62.513496 139.973862,62.955482 139.977814,63.729965 
z"/>
</svg>